BenchNine-Light.ufo
<glyph name="numbersign" format="1">
  <advance width="691"/>
  <unicode hex="0023"/>
  <outline>
    <contour>
      <point x="155" y="-191" type="curve" smooth="yes"/>
      <point x="203" y="-191" type="line" smooth="yes"/>
      <point x="211" y="-191"/>
      <point x="218" y="-177"/>
      <point x="220" y="-156" type="curve" smooth="yes"/>
      <point x="255" y="304" type="line"/>
      <point x="409" y="304" type="line"/>
      <point x="374" y="-156" type="line" smooth="yes"/>
      <point x="373" y="-173"/>
      <point x="376" y="-191"/>
      <point x="382" y="-191" type="curve" smooth="yes"/>
      <point x="430" y="-191" type="line" smooth="yes"/>
      <point x="437" y="-191"/>
      <point x="444" y="-177"/>
      <point x="446" y="-156" type="curve" smooth="yes"/>
      <point x="481" y="304" type="line"/>
      <point x="565" y="304" type="line" smooth="yes"/>
      <point x="581" y="304"/>
      <point x="588" y="310"/>
      <point x="588" y="345" type="curve" smooth="yes"/>
      <point x="588" y="366" type="line" smooth="yes"/>
      <point x="588" y="401"/>
      <point x="577" y="407"/>
      <point x="561" y="407" type="curve" smooth="yes"/>
      <point x="492" y="407" type="line"/>
      <point x="529" y="893" type="line"/>
      <point x="607" y="893" type="line" smooth="yes"/>
      <point x="621" y="893"/>
      <point x="626" y="899"/>
      <point x="626" y="934" type="curve" smooth="yes"/>
      <point x="626" y="957" type="line" smooth="yes"/>
      <point x="626" y="984"/>
      <point x="618" y="998"/>
      <point x="604" y="998" type="curve" smooth="yes"/>
      <point x="540" y="998" type="line"/>
      <point x="584" y="1518" type="line" smooth="yes"/>
      <point x="586" y="1535"/>
      <point x="582" y="1553"/>
      <point x="577" y="1553" type="curve" smooth="yes"/>
      <point x="529" y="1553" type="line" smooth="yes"/>
      <point x="521" y="1553"/>
      <point x="514" y="1539"/>
      <point x="513" y="1518" type="curve" smooth="yes"/>
      <point x="468" y="998" type="line"/>
      <point x="314" y="998" type="line"/>
      <point x="358" y="1518" type="line" smooth="yes"/>
      <point x="359" y="1535"/>
      <point x="355" y="1553"/>
      <point x="350" y="1553" type="curve" smooth="yes"/>
      <point x="300" y="1553" type="line" smooth="yes"/>
      <point x="294" y="1553"/>
      <point x="286" y="1539"/>
      <point x="284" y="1518" type="curve" smooth="yes"/>
      <point x="240" y="998" type="line"/>
      <point x="156" y="998" type="line" smooth="yes"/>
      <point x="142" y="998"/>
      <point x="134" y="984"/>
      <point x="134" y="957" type="curve" smooth="yes"/>
      <point x="134" y="934" type="line" smooth="yes"/>
      <point x="134" y="899"/>
      <point x="144" y="893"/>
      <point x="159" y="893" type="curve" smooth="yes"/>
      <point x="229" y="893" type="line"/>
      <point x="191" y="407" type="line"/>
      <point x="114" y="407" type="line" smooth="yes"/>
      <point x="99" y="407"/>
      <point x="95" y="401"/>
      <point x="95" y="366" type="curve" smooth="yes"/>
      <point x="95" y="345" type="line" smooth="yes"/>
      <point x="95" y="310"/>
      <point x="103" y="304"/>
      <point x="118" y="304" type="curve" smooth="yes"/>
      <point x="181" y="304" type="line"/>
      <point x="147" y="-156" type="line" smooth="yes"/>
      <point x="145" y="-173"/>
      <point x="149" y="-191"/>
    </contour>
    <contour>
      <point x="265" y="407" type="line"/>
      <point x="303" y="893" type="line"/>
      <point x="456" y="893" type="line"/>
      <point x="419" y="407" type="line"/>
    </contour>
  </outline>
</glyph>
<glyph name="ampersand" format="1">
  <advance width="1074"/>
  <unicode hex="0026"/>
  <outline>
    <contour>
      <point x="465" y="-14" type="curve" smooth="yes"/>
      <point x="643" y="-14"/>
      <point x="712" y="86"/>
      <point x="735" y="129" type="curve"/>
      <point x="753" y="32"/>
      <point x="825" y="-15"/>
      <point x="904" y="-15" type="curve" smooth="yes"/>
      <point x="956" y="-15"/>
      <point x="999" y="8"/>
      <point x="1021" y="23" type="curve" smooth="yes"/>
      <point x="1034" y="32"/>
      <point x="1040" y="44"/>
      <point x="1040" y="58" type="curve" smooth="yes"/>
      <point x="1040" y="61"/>
      <point x="1040" y="65"/>
      <point x="1039" y="68" type="curve" smooth="yes"/>
      <point x="1036" y="95" type="line"/>
      <point x="1031" y="118"/>
      <point x="1017" y="124"/>
      <point x="1004" y="114" type="curve" smooth="yes"/>
      <point x="978" y="95"/>
      <point x="955" y="84"/>
      <point x="922" y="84" type="curve" smooth="yes"/>
      <point x="868" y="84"/>
      <point x="811" y="131"/>
      <point x="811" y="329" type="curve" smooth="yes"/>
      <point x="811" y="682" type="line" smooth="yes"/>
      <point x="811" y="702"/>
      <point x="817" y="711"/>
      <point x="825" y="711" type="curve" smooth="yes"/>
      <point x="974" y="711" type="line" smooth="yes"/>
      <point x="992" y="711"/>
      <point x="1005" y="719"/>
      <point x="1005" y="754" type="curve" smooth="yes"/>
      <point x="1005" y="775" type="line" smooth="yes"/>
      <point x="1005" y="808"/>
      <point x="992" y="814"/>
      <point x="974" y="814" type="curve" smooth="yes"/>
      <point x="825" y="814" type="line" smooth="yes"/>
      <point x="817" y="814"/>
      <point x="811" y="824"/>
      <point x="811" y="844" type="curve" smooth="yes"/>
      <point x="811" y="1354" type="line" smooth="yes"/>
      <point x="811" y="1397"/>
      <point x="801" y="1408"/>
      <point x="784" y="1408" type="curve" smooth="yes"/>
      <point x="730" y="1408" type="line" smooth="yes"/>
      <point x="712" y="1408"/>
      <point x="700" y="1397"/>
      <point x="699" y="1354" type="curve" smooth="yes"/>
      <point x="697" y="844" type="line" smooth="yes"/>
      <point x="697" y="824"/>
      <point x="690" y="814"/>
      <point x="682" y="814" type="curve" smooth="yes"/>
      <point x="429" y="814" type="line" smooth="yes"/>
      <point x="308" y="814"/>
      <point x="241" y="926"/>
      <point x="241" y="1088" type="curve" smooth="yes"/>
      <point x="241" y="1306"/>
      <point x="340" y="1361"/>
      <point x="431" y="1361" type="curve" smooth="yes"/>
      <point x="492" y="1361"/>
      <point x="523" y="1344"/>
      <point x="533" y="1341" type="curve"/>
      <point x="548" y="1334"/>
      <point x="560" y="1340"/>
      <point x="560" y="1361" type="curve"/>
      <point x="562" y="1400" type="line"/>
      <point x="564" y="1419"/>
      <point x="552" y="1430"/>
      <point x="536" y="1437" type="curve" smooth="yes"/>
      <point x="517" y="1445"/>
      <point x="486" y="1459"/>
      <point x="402" y="1459" type="curve" smooth="yes"/>
      <point x="254" y="1459"/>
      <point x="126" y="1359"/>
      <point x="126" y="1086" type="curve" smooth="yes"/>
      <point x="126" y="868"/>
      <point x="234" y="777"/>
      <point x="315" y="756" type="curve"/>
      <point x="231" y="731"/>
      <point x="128" y="603"/>
      <point x="128" y="418" type="curve" smooth="yes"/>
      <point x="128" y="87"/>
      <point x="281" y="-14"/>
    </contour>
    <contour>
      <point x="474" y="80" type="curve" smooth="yes"/>
      <point x="393" y="80"/>
      <point x="243" y="133"/>
      <point x="243" y="407" type="curve" smooth="yes"/>
      <point x="243" y="625"/>
      <point x="347" y="710"/>
      <point x="439" y="711" type="curve" smooth="yes"/>
      <point x="603" y="711" type="line" smooth="yes"/>
      <point x="682" y="711" type="line" smooth="yes"/>
      <point x="690" y="711"/>
      <point x="697" y="703"/>
      <point x="697" y="683" type="curve" smooth="yes"/>
      <point x="697" y="683"/>
      <point x="699" y="287"/>
      <point x="701" y="251" type="curve"/>
      <point x="697" y="231"/>
      <point x="677" y="80"/>
    </contour>
  </outline>
</glyph>
<glyph name="parenright" format="1">
  <advance width="403"/>
  <unicode hex="0029"/>
  <outline>
    <contour>
      <point x="118" y="-143" type="curve" smooth="yes"/>
      <point x="257" y="-71"/>
      <point x="305" y="297"/>
      <point x="305" y="698" type="curve" smooth="yes"/>
      <point x="305" y="1098"/>
      <point x="257" y="1467"/>
      <point x="118" y="1540" type="curve" smooth="yes"/>
      <point x="117" y="1541"/>
      <point x="116" y="1541"/>
      <point x="115" y="1541" type="curve" smooth="yes"/>
      <point x="103" y="1541"/>
      <point x="91" y="1505"/>
      <point x="91" y="1470" type="curve" smooth="yes"/>
      <point x="91" y="1436" type="line" smooth="yes"/>
      <point x="91" y="1367"/>
      <point x="105" y="1362"/>
      <point x="125" y="1331" type="curve" smooth="yes"/>
      <point x="170" y="1265"/>
      <point x="210" y="1117"/>
      <point x="210" y="698" type="curve" smooth="yes"/>
      <point x="210" y="279"/>
      <point x="170" y="133"/>
      <point x="125" y="67" type="curve" smooth="yes"/>
      <point x="105" y="36"/>
      <point x="91" y="32"/>
      <point x="91" y="-37" type="curve" smooth="yes"/>
      <point x="91" y="-73" type="line" smooth="yes"/>
      <point x="91" y="-108"/>
      <point x="103" y="-144"/>
      <point x="115" y="-144" type="curve" smooth="yes"/>
      <point x="116" y="-144"/>
      <point x="117" y="-144"/>
    </contour>
  </outline>
</glyph>
<glyph name="hyphen" format="1">
  <advance width="410"/>
  <unicode hex="002D"/>
  <outline>
    <contour>
      <point x="75" y="561" type="curve" smooth="yes"/>
      <point x="330" y="561" type="line" smooth="yes"/>
      <point x="345" y="561"/>
      <point x="355" y="573"/>
      <point x="355" y="616" type="curve" smooth="yes"/>
      <point x="355" y="623" type="line" smooth="yes"/>
      <point x="355" y="666"/>
      <point x="345" y="678"/>
      <point x="330" y="678" type="curve" smooth="yes"/>
      <point x="75" y="678" type="line" smooth="yes"/>
      <point x="60" y="678"/>
      <point x="52" y="666"/>
      <point x="52" y="623" type="curve" smooth="yes"/>
      <point x="52" y="616" type="line" smooth="yes"/>
      <point x="52" y="573"/>
      <point x="60" y="561"/>
    </contour>
  </outline>
</glyph>
<glyph name="zero" format="1">
  <advance width="820"/>
  <unicode hex="0030"/>
  <outline>
    <contour>
      <point x="410" y="74" type="curve" smooth="yes"/>
      <point x="272" y="74"/>
      <point x="204" y="246"/>
      <point x="204" y="729" type="curve" smooth="yes"/>
      <point x="204" y="1194"/>
      <point x="267" y="1362"/>
      <point x="409" y="1362" type="curve" smooth="yes"/>
      <point x="551" y="1362"/>
      <point x="613" y="1196"/>
      <point x="613" y="729" type="curve" smooth="yes"/>
      <point x="613" y="242"/>
      <point x="548" y="74"/>
    </contour>
    <contour>
      <point x="409" y="-20" type="curve" smooth="yes"/>
      <point x="587" y="-20"/>
      <point x="725" y="146"/>
      <point x="725" y="729" type="curve" smooth="yes"/>
      <point x="725" y="1314"/>
      <point x="587" y="1455"/>
      <point x="408" y="1455" type="curve" smooth="yes"/>
      <point x="232" y="1455"/>
      <point x="93" y="1310"/>
      <point x="93" y="729" type="curve" smooth="yes"/>
      <point x="93" y="146"/>
      <point x="232" y="-20"/>
    </contour>
  </outline>
</glyph>
<glyph name="three" format="1">
  <advance width="692"/>
  <unicode hex="0033"/>
  <outline>
    <contour>
      <point x="498" y="1058" type="curve" smooth="yes"/>
      <point x="498" y="858"/>
      <point x="433" y="787"/>
      <point x="266" y="787" type="curve" smooth="yes"/>
      <point x="247" y="787"/>
      <point x="245" y="773"/>
      <point x="245" y="762" type="curve" smooth="yes"/>
      <point x="245" y="710" type="line" smooth="yes"/>
      <point x="245" y="692"/>
      <point x="248" y="683"/>
      <point x="266" y="683" type="curve" smooth="yes"/>
      <point x="302" y="683" type="line" smooth="yes"/>
      <point x="440" y="678"/>
      <point x="512" y="611"/>
      <point x="513" y="392" type="curve"/>
      <point x="513" y="165"/>
      <point x="444" y="80"/>
      <point x="284" y="80" type="curve" smooth="yes"/>
      <point x="183" y="80"/>
      <point x="130" y="105"/>
      <point x="93" y="126" type="curve"/>
      <point x="89" y="130"/>
      <point x="87" y="126"/>
      <point x="86" y="119" type="curve"/>
      <point x="79" y="119"/>
      <point x="74" y="85"/>
      <point x="74" y="72" type="curve" smooth="yes"/>
      <point x="74" y="60"/>
      <point x="78" y="37"/>
      <point x="87" y="31" type="curve" smooth="yes"/>
      <point x="134" y="3"/>
      <point x="209" y="-13"/>
      <point x="292" y="-13" type="curve" smooth="yes"/>
      <point x="460" y="-13"/>
      <point x="619" y="60"/>
      <point x="619" y="371" type="curve" smooth="yes"/>
      <point x="619" y="572"/>
      <point x="561" y="709"/>
      <point x="413" y="735" type="curve"/>
      <point x="543" y="772"/>
      <point x="608" y="869"/>
      <point x="608" y="1062" type="curve" smooth="yes"/>
      <point x="608" y="1361"/>
      <point x="476" y="1452"/>
      <point x="307" y="1452" type="curve" smooth="yes"/>
      <point x="231" y="1452"/>
      <point x="153" y="1436"/>
      <point x="84" y="1396" type="curve" smooth="yes"/>
      <point x="73" y="1389"/>
      <point x="68" y="1365"/>
      <point x="68" y="1353" type="curve" smooth="yes"/>
      <point x="68" y="1341"/>
      <point x="74" y="1310"/>
      <point x="79" y="1310" type="curve"/>
      <point x="80" y="1302"/>
      <point x="82" y="1300"/>
      <point x="86" y="1303" type="curve" smooth="yes"/>
      <point x="133" y="1331"/>
      <point x="201" y="1358"/>
      <point x="299" y="1358" type="curve" smooth="yes"/>
      <point x="428" y="1358"/>
      <point x="498" y="1282"/>
    </contour>
  </outline>
</glyph>
<glyph name="four" format="1">
  <advance width="861"/>
  <unicode hex="0034"/>
  <outline>
    <contour>
      <point x="577" y="0" type="curve" smooth="yes"/>
      <point x="614" y="0" type="line" smooth="yes"/>
      <point x="637" y="0"/>
      <point x="649" y="8"/>
      <point x="649" y="51" type="curve" smooth="yes"/>
      <point x="649" y="284" type="line"/>
      <point x="810" y="284" type="line" smooth="yes"/>
      <point x="849" y="284"/>
      <point x="862" y="290"/>
      <point x="862" y="326" type="curve" smooth="yes"/>
      <point x="862" y="349" type="line" smooth="yes"/>
      <point x="862" y="385"/>
      <point x="849" y="390"/>
      <point x="810" y="390" type="curve" smooth="yes"/>
      <point x="649" y="390" type="line"/>
      <point x="649" y="1385" type="line" smooth="yes"/>
      <point x="649" y="1428"/>
      <point x="637" y="1438"/>
      <point x="614" y="1438" type="curve" smooth="yes"/>
      <point x="577" y="1438" type="line" smooth="yes"/>
      <point x="554" y="1438"/>
      <point x="542" y="1428"/>
      <point x="542" y="1385" type="curve" smooth="yes"/>
      <point x="542" y="390" type="line"/>
      <point x="248" y="390" type="line" smooth="yes"/>
      <point x="229" y="390"/>
      <point x="227" y="399"/>
      <point x="229" y="413" type="curve" smooth="yes"/>
      <point x="344" y="1371" type="line" smooth="yes"/>
      <point x="345" y="1377"/>
      <point x="346" y="1385"/>
      <point x="346" y="1393" type="curve" smooth="yes"/>
      <point x="346" y="1414"/>
      <point x="340" y="1438"/>
      <point x="318" y="1438" type="curve" smooth="yes"/>
      <point x="279" y="1438" type="line" smooth="yes"/>
      <point x="254" y="1438"/>
      <point x="248" y="1413"/>
      <point x="242" y="1371" type="curve" smooth="yes"/>
      <point x="107" y="351" type="line" smooth="yes"/>
      <point x="106" y="347"/>
      <point x="106" y="342"/>
      <point x="106" y="338" type="curve" smooth="yes"/>
      <point x="106" y="302"/>
      <point x="133" y="284"/>
      <point x="168" y="284" type="curve" smooth="yes"/>
      <point x="542" y="284" type="line"/>
      <point x="542" y="51" type="line" smooth="yes"/>
      <point x="542" y="8"/>
      <point x="554" y="0"/>
    </contour>
  </outline>
</glyph>
<glyph name="five" format="1">
  <advance width="880"/>
  <unicode hex="0035"/>
  <outline>
    <contour>
      <point x="421" y="-14" type="curve"/>
      <point x="647" y="-14"/>
      <point x="801" y="81"/>
      <point x="801" y="465" type="curve" smooth="yes"/>
      <point x="801" y="745"/>
      <point x="730" y="931"/>
      <point x="495" y="931" type="curve" smooth="yes"/>
      <point x="336" y="931"/>
      <point x="256" y="833"/>
      <point x="227" y="794" type="curve"/>
      <point x="227" y="1290" type="line" smooth="yes"/>
      <point x="227" y="1322"/>
      <point x="232" y="1329"/>
      <point x="248" y="1329" type="curve" smooth="yes"/>
      <point x="734" y="1329" type="line" smooth="yes"/>
      <point x="743" y="1329"/>
      <point x="747" y="1342"/>
      <point x="748" y="1372" type="curve" smooth="yes"/>
      <point x="749" y="1408" type="line" smooth="yes"/>
      <point x="749" y="1432"/>
      <point x="735" y="1438"/>
      <point x="721" y="1438" type="curve" smooth="yes"/>
      <point x="153" y="1438" type="line" smooth="yes"/>
      <point x="130" y="1438"/>
      <point x="125" y="1423"/>
      <point x="125" y="1390" type="curve" smooth="yes"/>
      <point x="125" y="1378" type="line" smooth="yes"/>
      <point x="143" y="758" type="line" smooth="yes"/>
      <point x="144" y="718"/>
      <point x="142" y="678"/>
      <point x="168" y="678" type="curve" smooth="yes"/>
      <point x="197" y="678" type="line" smooth="yes"/>
      <point x="253" y="678"/>
      <point x="307" y="839"/>
      <point x="475" y="839" type="curve" smooth="yes"/>
      <point x="669" y="839"/>
      <point x="695" y="647"/>
      <point x="695" y="467" type="curve" smooth="yes"/>
      <point x="695" y="249"/>
      <point x="631" y="82"/>
      <point x="414" y="82" type="curve" smooth="yes"/>
      <point x="289" y="82"/>
      <point x="170" y="131"/>
      <point x="155" y="136" type="curve" smooth="yes"/>
      <point x="152" y="137"/>
      <point x="149" y="138"/>
      <point x="146" y="138" type="curve" smooth="yes"/>
      <point x="134" y="138"/>
      <point x="129" y="108"/>
      <point x="129" y="84" type="curve" smooth="yes"/>
      <point x="129" y="78"/>
      <point x="136" y="43"/>
      <point x="149" y="36" type="curve" smooth="yes"/>
      <point x="191" y="13"/>
      <point x="404" y="-13"/>
    </contour>
  </outline>
</glyph>
<glyph name="nine" format="1">
  <advance width="770"/>
  <unicode hex="0039"/>
  <outline>
    <contour>
      <point x="358" y="-13" type="curve" smooth="yes"/>
      <point x="563" y="-13"/>
      <point x="680" y="108"/>
      <point x="680" y="711" type="curve" smooth="yes"/>
      <point x="680" y="1253"/>
      <point x="623" y="1469"/>
      <point x="389" y="1469" type="curve" smooth="yes"/>
      <point x="222" y="1469"/>
      <point x="93" y="1342"/>
      <point x="93" y="1001" type="curve" smooth="yes"/>
      <point x="93" y="739"/>
      <point x="169" y="559"/>
      <point x="379" y="559" type="curve" smooth="yes"/>
      <point x="448" y="559"/>
      <point x="515" y="587"/>
      <point x="562" y="626" type="curve"/>
      <point x="562" y="522" type="line" smooth="yes"/>
      <point x="562" y="216"/>
      <point x="497" y="92"/>
      <point x="358" y="92" type="curve" smooth="yes"/>
      <point x="272" y="92"/>
      <point x="201" y="141"/>
      <point x="176" y="166" type="curve" smooth="yes"/>
      <point x="170" y="171"/>
      <point x="157" y="191"/>
      <point x="153" y="147" type="curve" smooth="yes"/>
      <point x="149" y="104" type="line"/>
      <point x="149" y="89"/>
      <point x="150" y="72"/>
      <point x="158" y="65" type="curve"/>
      <point x="198" y="20"/>
      <point x="293" y="-13"/>
    </contour>
    <contour>
      <point x="385" y="657" type="curve" smooth="yes"/>
      <point x="250" y="657"/>
      <point x="207" y="792"/>
      <point x="207" y="999" type="curve" smooth="yes"/>
      <point x="207" y="1239"/>
      <point x="269" y="1369"/>
      <point x="387" y="1369" type="curve" smooth="yes"/>
      <point x="515" y="1369"/>
      <point x="565" y="1235"/>
      <point x="565" y="886" type="curve" smooth="yes"/>
      <point x="565" y="723" type="line"/>
      <point x="506" y="671"/>
      <point x="432" y="657"/>
    </contour>
  </outline>
</glyph>
<glyph name="less" format="1">
  <advance width="672"/>
  <unicode hex="003C"/>
  <outline>
    <contour>
      <point x="432" y="115" type="curve" smooth="yes"/>
      <point x="443" y="115"/>
      <point x="449" y="129"/>
      <point x="449" y="154" type="curve" smooth="yes"/>
      <point x="449" y="193" type="line" smooth="yes"/>
      <point x="449" y="237"/>
      <point x="437" y="247"/>
      <point x="417" y="272" type="curve"/>
      <point x="184" y="598" type="line" smooth="yes"/>
      <point x="180" y="602"/>
      <point x="178" y="607"/>
      <point x="178" y="612" type="curve" smooth="yes"/>
      <point x="178" y="617"/>
      <point x="180" y="623"/>
      <point x="183" y="627" type="curve" smooth="yes"/>
      <point x="418" y="985" type="line"/>
      <point x="437" y="1011"/>
      <point x="449" y="1028"/>
      <point x="449" y="1072" type="curve" smooth="yes"/>
      <point x="449" y="1100" type="line" smooth="yes"/>
      <point x="449" y="1127"/>
      <point x="443" y="1142"/>
      <point x="432" y="1142" type="curve" smooth="yes"/>
      <point x="426" y="1142"/>
      <point x="420" y="1139"/>
      <point x="414" y="1131" type="curve" smooth="yes"/>
      <point x="135" y="713" type="line"/>
      <point x="108" y="676"/>
      <point x="99" y="666"/>
      <point x="99" y="624" type="curve" smooth="yes"/>
      <point x="99" y="606" type="line" smooth="yes"/>
      <point x="99" y="564"/>
      <point x="107" y="550"/>
      <point x="134" y="514" type="curve" smooth="yes"/>
      <point x="415" y="131" type="line" smooth="yes"/>
      <point x="422" y="123"/>
      <point x="428" y="115"/>
    </contour>
  </outline>
</glyph>
<glyph name="question" format="1">
  <advance width="733"/>
  <unicode hex="003F"/>
  <outline>
    <contour>
      <point x="250" y="481" type="curve"/>
      <point x="274" y="464"/>
      <point x="283" y="491"/>
      <point x="284" y="493" type="curve" smooth="yes"/>
      <point x="320" y="586"/>
      <point x="336" y="650"/>
      <point x="413" y="692" type="curve"/>
      <point x="574" y="777"/>
      <point x="680" y="929"/>
      <point x="680" y="1090" type="curve"/>
      <point x="678" y="1309"/>
      <point x="553" y="1451"/>
      <point x="345" y="1451" type="curve" smooth="yes"/>
      <point x="267" y="1451"/>
      <point x="180" y="1424"/>
      <point x="103" y="1381" type="curve"/>
      <point x="83" y="1372"/>
      <point x="74" y="1356"/>
      <point x="74" y="1339" type="curve" smooth="yes"/>
      <point x="74" y="1323"/>
      <point x="89" y="1290"/>
      <point x="106" y="1290" type="curve"/>
      <point x="113" y="1282"/>
      <point x="120" y="1279"/>
      <point x="131" y="1285" type="curve" smooth="yes"/>
      <point x="196" y="1326"/>
      <point x="269" y="1352"/>
      <point x="343" y="1352" type="curve" smooth="yes"/>
      <point x="485" y="1352"/>
      <point x="582" y="1237"/>
      <point x="583" y="1087" type="curve" smooth="yes"/>
      <point x="583" y="978"/>
      <point x="531" y="866"/>
      <point x="414" y="792" type="curve" smooth="yes"/>
      <point x="313" y="727"/>
      <point x="282" y="698"/>
      <point x="230" y="553" type="curve" smooth="yes"/>
      <point x="228" y="550"/>
      <point x="215" y="524"/>
      <point x="229" y="511" type="curve"/>
      <point x="235" y="498"/>
      <point x="243" y="491"/>
    </contour>
    <contour>
      <point x="231" y="0" type="curve" smooth="yes"/>
      <point x="285" y="0" type="line" smooth="yes"/>
      <point x="304" y="0"/>
      <point x="318" y="16"/>
      <point x="318" y="54" type="curve" smooth="yes"/>
      <point x="318" y="109" type="line" smooth="yes"/>
      <point x="318" y="147"/>
      <point x="304" y="163"/>
      <point x="285" y="163" type="curve" smooth="yes"/>
      <point x="231" y="163" type="line" smooth="yes"/>
      <point x="212" y="163"/>
      <point x="198" y="147"/>
      <point x="198" y="109" type="curve" smooth="yes"/>
      <point x="198" y="54" type="line" smooth="yes"/>
      <point x="198" y="16"/>
      <point x="212" y="0"/>
    </contour>
  </outline>
</glyph>
<glyph name="D" format="1">
  <advance width="899"/>
  <unicode hex="0044"/>
  <outline>
    <contour>
      <point x="232" y="90" type="line" smooth="yes"/>
      <point x="224" y="90"/>
      <point x="220" y="95"/>
      <point x="220" y="110" type="curve" smooth="yes"/>
      <point x="220" y="1331" type="line" smooth="yes"/>
      <point x="220" y="1343"/>
      <point x="225" y="1348"/>
      <point x="231" y="1348" type="curve" smooth="yes"/>
      <point x="426" y="1348" type="line" smooth="yes"/>
      <point x="626" y="1348"/>
      <point x="697" y="1162"/>
      <point x="697" y="723" type="curve" smooth="yes"/>
      <point x="697" y="235"/>
      <point x="642" y="90"/>
      <point x="423" y="90" type="curve" smooth="yes"/>
    </contour>
    <contour>
      <point x="131" y="0" type="curve" smooth="yes"/>
      <point x="426" y="0" type="line" smooth="yes"/>
      <point x="699" y="0"/>
      <point x="812" y="116"/>
      <point x="812" y="723" type="curve" smooth="yes"/>
      <point x="812" y="1287"/>
      <point x="671" y="1438"/>
      <point x="434" y="1438" type="curve" smooth="yes"/>
      <point x="131" y="1438" type="line" smooth="yes"/>
      <point x="116" y="1438"/>
      <point x="108" y="1434"/>
      <point x="108" y="1407" type="curve" smooth="yes"/>
      <point x="108" y="39" type="line" smooth="yes"/>
      <point x="108" y="4"/>
      <point x="116" y="0"/>
    </contour>
  </outline>
</glyph>
<glyph name="I" format="1">
  <advance width="332"/>
  <unicode hex="0049"/>
  <outline>
    <contour>
      <point x="135" y="0" type="curve" smooth="yes"/>
      <point x="201" y="0" type="line" smooth="yes"/>
      <point x="216" y="0"/>
      <point x="224" y="4"/>
      <point x="224" y="47" type="curve" smooth="yes"/>
      <point x="224" y="1391" type="line" smooth="yes"/>
      <point x="224" y="1434"/>
      <point x="216" y="1438"/>
      <point x="201" y="1438" type="curve" smooth="yes"/>
      <point x="135" y="1438" type="line" smooth="yes"/>
      <point x="120" y="1438"/>
      <point x="112" y="1434"/>
      <point x="112" y="1391" type="curve" smooth="yes"/>
      <point x="112" y="47" type="line" smooth="yes"/>
      <point x="112" y="4"/>
      <point x="120" y="0"/>
    </contour>
  </outline>
</glyph>
<glyph name="N" format="1">
  <advance width="889"/>
  <unicode hex="004E"/>
  <outline>
    <contour>
      <point x="132" y="0" type="curve" smooth="yes"/>
      <point x="186" y="0" type="line" smooth="yes"/>
      <point x="202" y="0"/>
      <point x="212" y="12"/>
      <point x="212" y="55" type="curve" smooth="yes"/>
      <point x="212" y="1136" type="line" smooth="yes"/>
      <point x="212" y="1139"/>
      <point x="217" y="1145"/>
      <point x="217" y="1145" type="curve"/>
      <point x="677" y="43" type="line" smooth="yes"/>
      <point x="684" y="26"/>
      <point x="702" y="0"/>
      <point x="712" y="0" type="curve" smooth="yes"/>
      <point x="758" y="0" type="line" smooth="yes"/>
      <point x="773" y="0"/>
      <point x="782" y="4"/>
      <point x="782" y="47" type="curve" smooth="yes"/>
      <point x="782" y="1389" type="line" smooth="yes"/>
      <point x="782" y="1432"/>
      <point x="773" y="1438"/>
      <point x="758" y="1438" type="curve" smooth="yes"/>
      <point x="704" y="1438" type="line" smooth="yes"/>
      <point x="687" y="1438"/>
      <point x="677" y="1432"/>
      <point x="677" y="1389" type="curve" smooth="yes"/>
      <point x="677" y="308" type="line" smooth="yes"/>
      <point x="677" y="305"/>
      <point x="673" y="293"/>
      <point x="672" y="295" type="curve" smooth="yes"/>
      <point x="215" y="1413" type="line" smooth="yes"/>
      <point x="208" y="1429"/>
      <point x="200" y="1438"/>
      <point x="191" y="1438" type="curve" smooth="yes"/>
      <point x="132" y="1438" type="line" smooth="yes"/>
      <point x="116" y="1438"/>
      <point x="108" y="1432"/>
      <point x="108" y="1389" type="curve" smooth="yes"/>
      <point x="108" y="55" type="line" smooth="yes"/>
      <point x="108" y="12"/>
      <point x="116" y="0"/>
    </contour>
  </outline>
</glyph>
<glyph name="O" format="1">
  <advance width="870"/>
  <unicode hex="004F"/>
  <outline>
    <contour>
      <point x="434" y="79" type="curve" smooth="yes"/>
      <point x="266" y="79"/>
      <point x="204" y="195"/>
      <point x="204" y="725" type="curve" smooth="yes"/>
      <point x="204" y="1200"/>
      <point x="261" y="1358"/>
      <point x="434" y="1358" type="curve" smooth="yes"/>
      <point x="609" y="1358"/>
      <point x="666" y="1216"/>
      <point x="666" y="725" type="curve" smooth="yes"/>
      <point x="666" y="184"/>
      <point x="605" y="79"/>
    </contour>
    <contour>
      <point x="434" y="-14" type="curve" smooth="yes"/>
      <point x="690" y="-14"/>
      <point x="781" y="120"/>
      <point x="781" y="725" type="curve" smooth="yes"/>
      <point x="781" y="1291"/>
      <point x="688" y="1452"/>
      <point x="434" y="1452" type="curve" smooth="yes"/>
      <point x="184" y="1452"/>
      <point x="89" y="1283"/>
      <point x="89" y="725" type="curve" smooth="yes"/>
      <point x="89" y="128"/>
      <point x="182" y="-14"/>
    </contour>
  </outline>
</glyph>
<glyph name="S" format="1">
  <advance width="742"/>
  <unicode hex="0053"/>
  <outline>
    <contour>
      <point x="389" y="1452" type="curve" smooth="yes"/>
      <point x="207" y="1452"/>
      <point x="93" y="1302"/>
      <point x="93" y="1086" type="curve" smooth="yes"/>
      <point x="93" y="882"/>
      <point x="199" y="795"/>
      <point x="284" y="737" type="curve" smooth="yes"/>
      <point x="421" y="644" type="line" smooth="yes"/>
      <point x="510" y="583"/>
      <point x="575" y="522"/>
      <point x="575" y="363" type="curve" smooth="yes"/>
      <point x="575" y="198"/>
      <point x="495" y="84"/>
      <point x="365" y="84" type="curve" smooth="yes"/>
      <point x="263" y="84"/>
      <point x="189" y="127"/>
      <point x="116" y="238" type="curve" smooth="yes"/>
      <point x="112" y="244"/>
      <point x="106" y="246"/>
      <point x="100" y="246" type="curve" smooth="yes"/>
      <point x="77" y="246"/>
      <point x="46" y="213"/>
      <point x="46" y="185" type="curve" smooth="yes"/>
      <point x="46" y="179"/>
      <point x="47" y="174"/>
      <point x="50" y="169" type="curve" smooth="yes"/>
      <point x="128" y="43"/>
      <point x="236" y="-14"/>
      <point x="368" y="-14" type="curve" smooth="yes"/>
      <point x="562" y="-14"/>
      <point x="682" y="155"/>
      <point x="682" y="377" type="curve" smooth="yes"/>
      <point x="682" y="588"/>
      <point x="586" y="681"/>
      <point x="482" y="750" type="curve" smooth="yes"/>
      <point x="347" y="840" type="line" smooth="yes"/>
      <point x="276" y="888"/>
      <point x="198" y="954"/>
      <point x="198" y="1101" type="curve" smooth="yes"/>
      <point x="198" y="1245"/>
      <point x="265" y="1356"/>
      <point x="391" y="1356" type="curve" smooth="yes"/>
      <point x="476" y="1356"/>
      <point x="549" y="1316"/>
      <point x="603" y="1248" type="curve" smooth="yes"/>
      <point x="605" y="1245"/>
      <point x="609" y="1244"/>
      <point x="613" y="1244" type="curve" smooth="yes"/>
      <point x="632" y="1244"/>
      <point x="664" y="1274"/>
      <point x="664" y="1304" type="curve" smooth="yes"/>
      <point x="664" y="1312"/>
      <point x="662" y="1320"/>
      <point x="656" y="1328" type="curve" smooth="yes"/>
      <point x="590" y="1411"/>
      <point x="499" y="1452"/>
    </contour>
  </outline>
</glyph>
<glyph name="V" format="1">
  <advance width="743"/>
  <unicode hex="0056"/>
  <outline>
    <contour>
      <point x="345" y="0" type="curve"/>
      <point x="416" y="0" type="line"/>
      <point x="432" y="2"/>
      <point x="443" y="18"/>
      <point x="450" y="59" type="curve" smooth="yes"/>
      <point x="686" y="1371" type="line" smooth="yes"/>
      <point x="688" y="1384"/>
      <point x="689" y="1395"/>
      <point x="689" y="1405" type="curve" smooth="yes"/>
      <point x="689" y="1426"/>
      <point x="684" y="1438"/>
      <point x="674" y="1438" type="curve" smooth="yes"/>
      <point x="613" y="1438" type="line" smooth="yes"/>
      <point x="597" y="1438"/>
      <point x="587" y="1417"/>
      <point x="580" y="1375" type="curve" smooth="yes"/>
      <point x="386" y="211" type="line"/>
      <point x="174" y="1375" type="line" smooth="yes"/>
      <point x="166" y="1417"/>
      <point x="154" y="1438"/>
      <point x="140" y="1438" type="curve" smooth="yes"/>
      <point x="69" y="1438" type="line" smooth="yes"/>
      <point x="60" y="1438"/>
      <point x="54" y="1425"/>
      <point x="54" y="1404" type="curve" smooth="yes"/>
      <point x="54" y="1395"/>
      <point x="56" y="1383"/>
      <point x="58" y="1371" type="curve" smooth="yes"/>
      <point x="310" y="59" type="line" smooth="yes"/>
      <point x="318" y="18"/>
      <point x="332" y="2"/>
    </contour>
  </outline>
</glyph>
<glyph name="Y" format="1">
  <advance width="645"/>
  <unicode hex="0059"/>
  <outline>
    <contour>
      <point x="290" y="0" type="curve" smooth="yes"/>
      <point x="358" y="0" type="line" smooth="yes"/>
      <point x="373" y="0"/>
      <point x="381" y="9"/>
      <point x="381" y="52" type="curve" smooth="yes"/>
      <point x="381" y="543" type="line"/>
      <point x="600" y="1380" type="line" smooth="yes"/>
      <point x="605" y="1396"/>
      <point x="605" y="1404"/>
      <point x="605" y="1414" type="curve" smooth="yes"/>
      <point x="605" y="1429"/>
      <point x="599" y="1438"/>
      <point x="586" y="1438" type="curve" smooth="yes"/>
      <point x="534" y="1438" type="line" smooth="yes"/>
      <point x="518" y="1438"/>
      <point x="502" y="1423"/>
      <point x="496" y="1396" type="curve" smooth="yes"/>
      <point x="329" y="729" type="line"/>
      <point x="160" y="1396" type="line" smooth="yes"/>
      <point x="152" y="1427"/>
      <point x="134" y="1438"/>
      <point x="119" y="1438" type="curve" smooth="yes"/>
      <point x="60" y="1438" type="line" smooth="yes"/>
      <point x="48" y="1438"/>
      <point x="40" y="1429"/>
      <point x="40" y="1416" type="curve" smooth="yes"/>
      <point x="40" y="1406"/>
      <point x="41" y="1398"/>
      <point x="47" y="1380" type="curve"/>
      <point x="267" y="540" type="line"/>
      <point x="267" y="52" type="line" smooth="yes"/>
      <point x="267" y="9"/>
      <point x="275" y="0"/>
    </contour>
  </outline>
</glyph>
<glyph name="Z" format="1">
  <advance width="645"/>
  <unicode hex="005A"/>
  <outline>
    <contour>
      <point x="104" y="0" type="curve" smooth="yes"/>
      <point x="565" y="0" type="line" smooth="yes"/>
      <point x="578" y="0"/>
      <point x="588" y="1"/>
      <point x="588" y="31" type="curve" smooth="yes"/>
      <point x="588" y="61" type="line" smooth="yes"/>
      <point x="588" y="92"/>
      <point x="578" y="90"/>
      <point x="565" y="90" type="curve" smooth="yes"/>
      <point x="223" y="90" type="line" smooth="yes"/>
      <point x="218" y="90"/>
      <point x="216" y="97"/>
      <point x="216" y="104" type="curve" smooth="yes"/>
      <point x="216" y="112"/>
      <point x="218" y="120"/>
      <point x="221" y="129" type="curve" smooth="yes"/>
      <point x="566" y="1303" type="line" smooth="yes"/>
      <point x="571" y="1320"/>
      <point x="579" y="1346"/>
      <point x="579" y="1390" type="curve" smooth="yes"/>
      <point x="579" y="1407" type="line" smooth="yes"/>
      <point x="579" y="1437"/>
      <point x="570" y="1438"/>
      <point x="556" y="1438" type="curve" smooth="yes"/>
      <point x="110" y="1438" type="line" smooth="yes"/>
      <point x="95" y="1438"/>
      <point x="86" y="1437"/>
      <point x="86" y="1407" type="curve" smooth="yes"/>
      <point x="86" y="1379" type="line" smooth="yes"/>
      <point x="86" y="1348"/>
      <point x="95" y="1348"/>
      <point x="110" y="1348" type="curve" smooth="yes"/>
      <point x="438" y="1348" type="line" smooth="yes"/>
      <point x="445" y="1348"/>
      <point x="449" y="1339"/>
      <point x="449" y="1329" type="curve" smooth="yes"/>
      <point x="449" y="1320"/>
      <point x="446" y="1311"/>
      <point x="444" y="1301" type="curve" smooth="yes"/>
      <point x="91" y="105" type="line" smooth="yes"/>
      <point x="86" y="87"/>
      <point x="82" y="80"/>
      <point x="82" y="52" type="curve" smooth="yes"/>
      <point x="82" y="31" type="line" smooth="yes"/>
      <point x="82" y="1"/>
      <point x="90" y="0"/>
    </contour>
  </outline>
</glyph>
<glyph name="bracketright" format="1">
  <advance width="480"/>
  <unicode hex="005D"/>
  <outline>
    <contour>
      <point x="117" y="-84" type="curve" smooth="yes"/>
      <point x="347" y="-84" type="line" smooth="yes"/>
      <point x="362" y="-84"/>
      <point x="373" y="-56"/>
      <point x="373" y="-13" type="curve" smooth="yes"/>
      <point x="373" y="1428" type="line" smooth="yes"/>
      <point x="373" y="1471"/>
      <point x="362" y="1501"/>
      <point x="347" y="1501" type="curve" smooth="yes"/>
      <point x="117" y="1501" type="line" smooth="yes"/>
      <point x="101" y="1501"/>
      <point x="93" y="1487"/>
      <point x="93" y="1444" type="curve" smooth="yes"/>
      <point x="93" y="1377" type="line" smooth="yes"/>
      <point x="93" y="1334"/>
      <point x="101" y="1320"/>
      <point x="117" y="1320" type="curve" smooth="yes"/>
      <point x="248" y="1320" type="line" smooth="yes"/>
      <point x="255" y="1320"/>
      <point x="258" y="1311"/>
      <point x="258" y="1291" type="curve" smooth="yes"/>
      <point x="258" y="134" type="line" smooth="yes"/>
      <point x="258" y="114"/>
      <point x="255" y="105"/>
      <point x="248" y="105" type="curve" smooth="yes"/>
      <point x="116" y="105" type="line" smooth="yes"/>
      <point x="101" y="105"/>
      <point x="93" y="93"/>
      <point x="93" y="50" type="curve" smooth="yes"/>
      <point x="93" y="-29" type="line" smooth="yes"/>
      <point x="93" y="-72"/>
      <point x="101" y="-84"/>
    </contour>
  </outline>
</glyph>
<glyph name="asciicircum" format="1">
  <advance width="1030"/>
  <unicode hex="005E"/>
  <outline>
    <contour>
      <point x="127" y="247" type="curve" smooth="yes"/>
      <point x="159" y="247" type="line" smooth="yes"/>
      <point x="195" y="247"/>
      <point x="204" y="261"/>
      <point x="222" y="316" type="curve"/>
      <point x="492" y="1095" type="line" smooth="yes"/>
      <point x="501" y="1120"/>
      <point x="504" y="1126"/>
      <point x="513" y="1126" type="curve" smooth="yes"/>
      <point x="522" y="1126"/>
      <point x="525" y="1120"/>
      <point x="534" y="1095" type="curve" smooth="yes"/>
      <point x="812" y="316" type="line" smooth="yes"/>
      <point x="831" y="261"/>
      <point x="844" y="247"/>
      <point x="870" y="247" type="curve" smooth="yes"/>
      <point x="903" y="247" type="line" smooth="yes"/>
      <point x="924" y="247"/>
      <point x="932" y="261"/>
      <point x="932" y="278" type="curve" smooth="yes"/>
      <point x="932" y="290"/>
      <point x="928" y="303"/>
      <point x="924" y="315" type="curve" smooth="yes"/>
      <point x="607" y="1185" type="line"/>
      <point x="589" y="1228"/>
      <point x="577" y="1253"/>
      <point x="530" y="1253" type="curve" smooth="yes"/>
      <point x="497" y="1253" type="line" smooth="yes"/>
      <point x="450" y="1253"/>
      <point x="435" y="1228"/>
      <point x="418" y="1186" type="curve"/>
      <point x="107" y="314" type="line" smooth="yes"/>
      <point x="102" y="301"/>
      <point x="99" y="287"/>
      <point x="99" y="276" type="curve" smooth="yes"/>
      <point x="99" y="259"/>
      <point x="106" y="247"/>
    </contour>
  </outline>
</glyph>
<glyph name="grave" format="1">
  <advance width="596"/>
  <unicode hex="0060"/>
  <outline>
    <contour>
      <point x="447" y="1167" type="curve" smooth="yes"/>
      <point x="468" y="1167" type="line" smooth="yes"/>
      <point x="478" y="1167"/>
      <point x="482" y="1172"/>
      <point x="482" y="1199" type="curve" smooth="yes"/>
      <point x="482" y="1208"/>
      <point x="482" y="1220"/>
      <point x="481" y="1234" type="curve" smooth="yes"/>
      <point x="461" y="1548" type="line"/>
      <point x="457" y="1591"/>
      <point x="451" y="1603"/>
      <point x="435" y="1603" type="curve" smooth="yes"/>
      <point x="371" y="1603" type="line" smooth="yes"/>
      <point x="364" y="1603"/>
      <point x="361" y="1591"/>
      <point x="361" y="1575" type="curve" smooth="yes"/>
      <point x="361" y="1564"/>
      <point x="363" y="1550"/>
      <point x="365" y="1538" type="curve" smooth="yes"/>
      <point x="427" y="1206" type="line" smooth="yes"/>
      <point x="430" y="1189"/>
      <point x="434" y="1167"/>
    </contour>
  </outline>
</glyph>
<glyph name="n" format="1">
  <advance width="679"/>
  <unicode hex="006E"/>
  <outline>
    <contour>
      <point x="122" y="0" type="curve" smooth="yes"/>
      <point x="181" y="0" type="line" smooth="yes"/>
      <point x="195" y="0"/>
      <point x="204" y="8"/>
      <point x="204" y="51" type="curve" smooth="yes"/>
      <point x="204" y="629" type="line" smooth="yes"/>
      <point x="204" y="787"/>
      <point x="277" y="934"/>
      <point x="377" y="934" type="curve" smooth="yes"/>
      <point x="446" y="934"/>
      <point x="485" y="857"/>
      <point x="485" y="645" type="curve" smooth="yes"/>
      <point x="485" y="51" type="line" smooth="yes"/>
      <point x="485" y="8"/>
      <point x="493" y="0"/>
      <point x="508" y="0" type="curve" smooth="yes"/>
      <point x="568" y="0" type="line" smooth="yes"/>
      <point x="582" y="0"/>
      <point x="591" y="8"/>
      <point x="591" y="51" type="curve" smooth="yes"/>
      <point x="591" y="625" type="line"/>
      <point x="590" y="934"/>
      <point x="513" y="1019"/>
      <point x="393" y="1019" type="curve" smooth="yes"/>
      <point x="318" y="1019"/>
      <point x="231" y="987"/>
      <point x="188" y="818" type="curve" smooth="yes"/>
      <point x="187" y="812"/>
      <point x="185" y="805"/>
      <point x="183" y="805" type="curve" smooth="yes"/>
      <point x="179" y="805"/>
      <point x="178" y="809"/>
      <point x="176" y="817" type="curve"/>
      <point x="164" y="954" type="line"/>
      <point x="158" y="1002"/>
      <point x="150" y="1006"/>
      <point x="134" y="1006" type="curve" smooth="yes"/>
      <point x="120" y="1006" type="line" smooth="yes"/>
      <point x="105" y="1006"/>
      <point x="98" y="984"/>
      <point x="98" y="941" type="curve" smooth="yes"/>
      <point x="98" y="51" type="line" smooth="yes"/>
      <point x="98" y="8"/>
      <point x="107" y="0"/>
    </contour>
  </outline>
</glyph>
<glyph name="s" format="1">
  <advance width="561"/>
  <unicode hex="0073"/>
  <outline>
    <contour>
      <point x="515" y="252" type="curve" smooth="yes"/>
      <point x="515" y="426"/>
      <point x="413" y="502"/>
      <point x="304" y="568" type="curve" smooth="yes"/>
      <point x="217" y="621"/>
      <point x="173" y="673"/>
      <point x="173" y="773" type="curve" smooth="yes"/>
      <point x="173" y="855"/>
      <point x="215" y="932"/>
      <point x="298" y="932" type="curve" smooth="yes"/>
      <point x="360" y="932"/>
      <point x="398" y="905"/>
      <point x="441" y="866" type="curve" smooth="yes"/>
      <point x="443" y="864"/>
      <point x="445" y="864"/>
      <point x="447" y="864" type="curve" smooth="yes"/>
      <point x="463" y="864"/>
      <point x="490" y="898"/>
      <point x="490" y="921" type="curve" smooth="yes"/>
      <point x="490" y="926"/>
      <point x="488" y="931"/>
      <point x="485" y="934" type="curve" smooth="yes"/>
      <point x="432" y="988"/>
      <point x="367" y="1019"/>
      <point x="292" y="1019" type="curve" smooth="yes"/>
      <point x="164" y="1019"/>
      <point x="79" y="914"/>
      <point x="79" y="767" type="curve" smooth="yes"/>
      <point x="79" y="600"/>
      <point x="170" y="533"/>
      <point x="273" y="468" type="curve" smooth="yes"/>
      <point x="357" y="414"/>
      <point x="421" y="362"/>
      <point x="421" y="253" type="curve" smooth="yes"/>
      <point x="421" y="159"/>
      <point x="373" y="73"/>
      <point x="274" y="73" type="curve" smooth="yes"/>
      <point x="197" y="73"/>
      <point x="150" y="109"/>
      <point x="94" y="172" type="curve" smooth="yes"/>
      <point x="92" y="174"/>
      <point x="90" y="175"/>
      <point x="87" y="175" type="curve" smooth="yes"/>
      <point x="70" y="175"/>
      <point x="38" y="143"/>
      <point x="38" y="118" type="curve" smooth="yes"/>
      <point x="38" y="112"/>
      <point x="40" y="107"/>
      <point x="44" y="102" type="curve" smooth="yes"/>
      <point x="107" y="28"/>
      <point x="178" y="-12"/>
      <point x="275" y="-12" type="curve" smooth="yes"/>
      <point x="428" y="-12"/>
      <point x="515" y="98"/>
    </contour>
  </outline>
</glyph>
<glyph name="z" format="1">
  <advance width="513"/>
  <unicode hex="007A"/>
  <outline>
    <contour>
      <point x="97" y="0" type="curve" smooth="yes"/>
      <point x="447" y="0" type="line" smooth="yes"/>
      <point x="452" y="0"/>
      <point x="459" y="4"/>
      <point x="459" y="20" type="curve" smooth="yes"/>
      <point x="459" y="76" type="line" smooth="yes"/>
      <point x="459" y="92"/>
      <point x="452" y="96"/>
      <point x="447" y="96" type="curve" smooth="yes"/>
      <point x="191" y="96" type="line"/>
      <point x="437" y="871" type="line" smooth="yes"/>
      <point x="442" y="886"/>
      <point x="446" y="908"/>
      <point x="446" y="931" type="curve" smooth="yes"/>
      <point x="446" y="985" type="line" smooth="yes"/>
      <point x="446" y="1001"/>
      <point x="435" y="1006"/>
      <point x="428" y="1006" type="curve" smooth="yes"/>
      <point x="92" y="1006" type="line" smooth="yes"/>
      <point x="85" y="1006"/>
      <point x="80" y="999"/>
      <point x="80" y="985" type="curve" smooth="yes"/>
      <point x="80" y="934" type="line" smooth="yes"/>
      <point x="80" y="914"/>
      <point x="85" y="910"/>
      <point x="92" y="910" type="curve" smooth="yes"/>
      <point x="340" y="910" type="line"/>
      <point x="96" y="138" type="line" smooth="yes"/>
      <point x="86" y="107"/>
      <point x="79" y="93"/>
      <point x="79" y="70" type="curve" smooth="yes"/>
      <point x="79" y="18" type="line" smooth="yes"/>
      <point x="79" y="4"/>
      <point x="91" y="0"/>
    </contour>
  </outline>
</glyph>
<glyph name="braceleft" format="1">
  <advance width="507"/>
  <unicode hex="007B"/>
  <outline>
    <contour>
      <point x="392" y="1543" type="curve" smooth="yes"/>
      <point x="337" y="1543" type="line" smooth="yes"/>
      <point x="242" y="1543"/>
      <point x="212" y="1512"/>
      <point x="211" y="1180" type="curve" smooth="yes"/>
      <point x="211" y="974" type="line" smooth="yes"/>
      <point x="210" y="825"/>
      <point x="203" y="793"/>
      <point x="158" y="793" type="curve" smooth="yes"/>
      <point x="119" y="793"/>
      <point x="100" y="791"/>
      <point x="100" y="744" type="curve" smooth="yes"/>
      <point x="100" y="724" type="line" smooth="yes"/>
      <point x="100" y="671"/>
      <point x="117" y="669"/>
      <point x="158" y="669" type="curve" smooth="yes"/>
      <point x="202" y="668"/>
      <point x="210" y="642"/>
      <point x="211" y="491" type="curve" smooth="yes"/>
      <point x="211" y="292" type="line" smooth="yes"/>
      <point x="212" y="-40"/>
      <point x="241" y="-77"/>
      <point x="337" y="-77" type="curve" smooth="yes"/>
      <point x="392" y="-77" type="line" smooth="yes"/>
      <point x="406" y="-77"/>
      <point x="418" y="-65"/>
      <point x="418" y="-37" type="curve" smooth="yes"/>
      <point x="418" y="-16" type="line" smooth="yes"/>
      <point x="418" y="12"/>
      <point x="407" y="21"/>
      <point x="367" y="21" type="curve" smooth="yes"/>
      <point x="314" y="21"/>
      <point x="313" y="37"/>
      <point x="313" y="319" type="curve" smooth="yes"/>
      <point x="313" y="534" type="line" smooth="yes"/>
      <point x="313" y="664"/>
      <point x="303" y="717"/>
      <point x="247" y="731" type="curve" smooth="yes"/>
      <point x="244" y="732"/>
      <point x="244" y="738"/>
      <point x="247" y="739" type="curve" smooth="yes"/>
      <point x="304" y="751"/>
      <point x="314" y="807"/>
      <point x="314" y="939" type="curve" smooth="yes"/>
      <point x="314" y="1154" type="line" smooth="yes"/>
      <point x="314" y="1433"/>
      <point x="315" y="1446"/>
      <point x="367" y="1446" type="curve" smooth="yes"/>
      <point x="407" y="1446"/>
      <point x="418" y="1454"/>
      <point x="418" y="1482" type="curve" smooth="yes"/>
      <point x="418" y="1504" type="line" smooth="yes"/>
      <point x="418" y="1531"/>
      <point x="406" y="1543"/>
    </contour>
  </outline>
</glyph>
<glyph name="asciitilde" format="1">
  <advance width="1345"/>
  <unicode hex="007E"/>
  <outline>
    <contour>
      <point x="418" y="276" type="curve" smooth="yes"/>
      <point x="601" y="276"/>
      <point x="815" y="444"/>
      <point x="954" y="444" type="curve" smooth="yes"/>
      <point x="1010" y="444"/>
      <point x="1051" y="396"/>
      <point x="1094" y="330" type="curve" smooth="yes"/>
      <point x="1102" y="316"/>
      <point x="1113" y="304"/>
      <point x="1130" y="305" type="curve" smooth="yes"/>
      <point x="1147" y="306"/>
      <point x="1164" y="323"/>
      <point x="1164" y="351" type="curve" smooth="yes"/>
      <point x="1164" y="360"/>
      <point x="1163" y="369"/>
      <point x="1158" y="378" type="curve" smooth="yes"/>
      <point x="1104" y="482"/>
      <point x="1058" y="542"/>
      <point x="950" y="542" type="curve" smooth="yes"/>
      <point x="782" y="542"/>
      <point x="581" y="375"/>
      <point x="438" y="375" type="curve" smooth="yes"/>
      <point x="433" y="375" type="line" smooth="yes"/>
      <point x="354" y="375"/>
      <point x="302" y="398"/>
      <point x="260" y="505" type="curve" smooth="yes"/>
      <point x="257" y="512"/>
      <point x="253" y="528"/>
      <point x="232" y="528" type="curve" smooth="yes"/>
      <point x="203" y="528"/>
      <point x="180" y="506"/>
      <point x="180" y="485" type="curve" smooth="yes"/>
      <point x="180" y="476"/>
      <point x="183" y="467"/>
      <point x="188" y="456" type="curve" smooth="yes"/>
      <point x="222" y="379"/>
      <point x="277" y="276"/>
    </contour>
  </outline>
</glyph>
<glyph name="cent" format="1">
  <advance width="528"/>
  <unicode hex="00A2"/>
  <outline>
    <contour>
      <point x="473" y="986" type="line" smooth="yes"/>
      <point x="473" y="1008"/>
      <point x="403" y="1014"/>
      <point x="386" y="1016" type="curve"/>
      <point x="386" y="1188" type="line" smooth="yes"/>
      <point x="386" y="1220"/>
      <point x="381" y="1235"/>
      <point x="366" y="1235" type="curve" smooth="yes"/>
      <point x="352" y="1235" type="line" smooth="yes"/>
      <point x="337" y="1235"/>
      <point x="332" y="1220"/>
      <point x="332" y="1188" type="curve" smooth="yes"/>
      <point x="332" y="1018" type="line"/>
      <point x="213" y="1014"/>
      <point x="80" y="947"/>
      <point x="80" y="507" type="curve" smooth="yes"/>
      <point x="80" y="65"/>
      <point x="213" y="-6"/>
      <point x="332" y="-12" type="curve"/>
      <point x="332" y="-144" type="line" smooth="yes"/>
      <point x="332" y="-178"/>
      <point x="337" y="-194"/>
      <point x="352" y="-194" type="curve" smooth="yes"/>
      <point x="366" y="-194" type="line" smooth="yes"/>
      <point x="381" y="-194"/>
      <point x="386" y="-178"/>
      <point x="386" y="-144" type="curve" smooth="yes"/>
      <point x="386" y="-9" type="line"/>
      <point x="414" y="-6"/>
      <point x="443" y="-1"/>
      <point x="465" y="10" type="curve" smooth="yes"/>
      <point x="467" y="11"/>
      <point x="475" y="21"/>
      <point x="475" y="23" type="curve" smooth="yes"/>
      <point x="475" y="81" type="line" smooth="yes"/>
      <point x="475" y="83"/>
      <point x="466" y="94"/>
      <point x="465" y="94" type="curve" smooth="yes"/>
      <point x="439" y="85"/>
      <point x="412" y="78"/>
      <point x="386" y="76" type="curve"/>
      <point x="386" y="931" type="line"/>
      <point x="411" y="929"/>
      <point x="438" y="921"/>
      <point x="465" y="914" type="curve" smooth="yes"/>
      <point x="467" y="914"/>
      <point x="473" y="923"/>
      <point x="473" y="926" type="curve" smooth="yes"/>
    </contour>
    <contour>
      <point x="332" y="78" type="line"/>
      <point x="254" y="93"/>
      <point x="188" y="171"/>
      <point x="188" y="507" type="curve" smooth="yes"/>
      <point x="188" y="853"/>
      <point x="261" y="917"/>
      <point x="332" y="929" type="curve"/>
    </contour>
  </outline>
</glyph>
<glyph name="currency" format="1">
  <advance width="1022"/>
  <unicode hex="00A4"/>
  <outline>
    <contour>
      <point x="511" y="628" type="curve" smooth="yes"/>
      <point x="619" y="628"/>
      <point x="686" y="655"/>
      <point x="756" y="701" type="curve"/>
      <point x="781" y="675" type="line" smooth="yes"/>
      <point x="797" y="658"/>
      <point x="812" y="643"/>
      <point x="827" y="643" type="curve" smooth="yes"/>
      <point x="834" y="643"/>
      <point x="841" y="647"/>
      <point x="847" y="654" type="curve" smooth="yes"/>
      <point x="874" y="680" type="line" smooth="yes"/>
      <point x="882" y="688"/>
      <point x="885" y="695"/>
      <point x="885" y="703" type="curve" smooth="yes"/>
      <point x="885" y="718"/>
      <point x="871" y="732"/>
      <point x="854" y="749" type="curve" smooth="yes"/>
      <point x="834" y="769" type="line"/>
      <point x="897" y="841"/>
      <point x="930" y="935"/>
      <point x="930" y="1037" type="curve" smooth="yes"/>
      <point x="930" y="1141"/>
      <point x="896" y="1236"/>
      <point x="832" y="1310" type="curve"/>
      <point x="854" y="1331" type="line" smooth="yes"/>
      <point x="871" y="1348"/>
      <point x="885" y="1363"/>
      <point x="885" y="1378" type="curve" smooth="yes"/>
      <point x="885" y="1384"/>
      <point x="882" y="1390"/>
      <point x="876" y="1398" type="curve"/>
      <point x="849" y="1423" type="line"/>
      <point x="841" y="1432"/>
      <point x="834" y="1435"/>
      <point x="827" y="1435" type="curve" smooth="yes"/>
      <point x="811" y="1435"/>
      <point x="797" y="1421"/>
      <point x="780" y="1404" type="curve" smooth="yes"/>
      <point x="754" y="1378" type="line"/>
      <point x="685" y="1422"/>
      <point x="618" y="1449"/>
      <point x="511" y="1449" type="curve" smooth="yes"/>
      <point x="404" y="1449"/>
      <point x="338" y="1422"/>
      <point x="269" y="1378" type="curve"/>
      <point x="242" y="1405" type="line" smooth="yes"/>
      <point x="225" y="1421"/>
      <point x="211" y="1435"/>
      <point x="196" y="1435" type="curve" smooth="yes"/>
      <point x="189" y="1435"/>
      <point x="180" y="1432"/>
      <point x="173" y="1423" type="curve"/>
      <point x="146" y="1398" type="line" smooth="yes"/>
      <point x="139" y="1391"/>
      <point x="136" y="1384"/>
      <point x="136" y="1378" type="curve" smooth="yes"/>
      <point x="136" y="1363"/>
      <point x="150" y="1348"/>
      <point x="167" y="1331" type="curve"/>
      <point x="190" y="1310" type="line"/>
      <point x="125" y="1236"/>
      <point x="92" y="1141"/>
      <point x="92" y="1037" type="curve" smooth="yes"/>
      <point x="92" y="935"/>
      <point x="125" y="840"/>
      <point x="188" y="769" type="curve"/>
      <point x="167" y="748" type="line" smooth="yes"/>
      <point x="151" y="732"/>
      <point x="138" y="718"/>
      <point x="138" y="703" type="curve" smooth="yes"/>
      <point x="138" y="695"/>
      <point x="141" y="688"/>
      <point x="149" y="679" type="curve" smooth="yes"/>
      <point x="175" y="654" type="line"/>
      <point x="181" y="646"/>
      <point x="189" y="643"/>
      <point x="195" y="643" type="curve" smooth="yes"/>
      <point x="210" y="643"/>
      <point x="225" y="658"/>
      <point x="242" y="675" type="curve" smooth="yes"/>
      <point x="266" y="701" type="line"/>
      <point x="335" y="655"/>
      <point x="402" y="628"/>
    </contour>
    <contour>
      <point x="511" y="704" type="curve" smooth="yes"/>
      <point x="271" y="704"/>
      <point x="181" y="881"/>
      <point x="181" y="1033" type="curve" smooth="yes"/>
      <point x="181" y="1195"/>
      <point x="271" y="1367"/>
      <point x="511" y="1367" type="curve" smooth="yes"/>
      <point x="750" y="1367"/>
      <point x="839" y="1195"/>
      <point x="839" y="1033" type="curve" smooth="yes"/>
      <point x="839" y="881"/>
      <point x="750" y="704"/>
    </contour>
  </outline>
</glyph>
<glyph name="brokenbar" format="1">
  <advance width="428"/>
  <unicode hex="00A6"/>
  <outline>
    <contour>
      <point x="195" y="-90" type="curve" smooth="yes"/>
      <point x="232" y="-90" type="line" smooth="yes"/>
      <point x="247" y="-90"/>
      <point x="256" y="-82"/>
      <point x="256" y="-39" type="curve" smooth="yes"/>
      <point x="256" y="550" type="line" smooth="yes"/>
      <point x="256" y="593"/>
      <point x="247" y="601"/>
      <point x="232" y="601" type="curve" smooth="yes"/>
      <point x="195" y="601" type="line" smooth="yes"/>
      <point x="181" y="601"/>
      <point x="172" y="593"/>
      <point x="172" y="550" type="curve" smooth="yes"/>
      <point x="172" y="-39" type="line" smooth="yes"/>
      <point x="172" y="-82"/>
      <point x="181" y="-90"/>
    </contour>
    <contour>
      <point x="195" y="831" type="curve" smooth="yes"/>
      <point x="232" y="831" type="line" smooth="yes"/>
      <point x="247" y="831"/>
      <point x="256" y="839"/>
      <point x="256" y="882" type="curve" smooth="yes"/>
      <point x="256" y="1474" type="line" smooth="yes"/>
      <point x="256" y="1517"/>
      <point x="247" y="1525"/>
      <point x="232" y="1525" type="curve" smooth="yes"/>
      <point x="195" y="1525" type="line" smooth="yes"/>
      <point x="181" y="1525"/>
      <point x="172" y="1517"/>
      <point x="172" y="1474" type="curve" smooth="yes"/>
      <point x="172" y="882" type="line" smooth="yes"/>
      <point x="172" y="839"/>
      <point x="181" y="831"/>
    </contour>
  </outline>
</glyph>
<glyph name="copyright" format="1">
  <advance width="1348"/>
  <unicode hex="00A9"/>
  <outline>
    <contour>
      <point x="694" y="338" type="curve" smooth="yes"/>
      <point x="772" y="338"/>
      <point x="803" y="353"/>
      <point x="865" y="388" type="curve" smooth="yes"/>
      <point x="874" y="393"/>
      <point x="878" y="403"/>
      <point x="878" y="415" type="curve" smooth="yes"/>
      <point x="878" y="438"/>
      <point x="863" y="463"/>
      <point x="846" y="463" type="curve" smooth="yes"/>
      <point x="845" y="463"/>
      <point x="843" y="462"/>
      <point x="840" y="461" type="curve" smooth="yes"/>
      <point x="793" y="437"/>
      <point x="762" y="417"/>
      <point x="699" y="417" type="curve" smooth="yes"/>
      <point x="573" y="417"/>
      <point x="475" y="512"/>
      <point x="475" y="727" type="curve" smooth="yes"/>
      <point x="475" y="928"/>
      <point x="569" y="1034"/>
      <point x="702" y="1034" type="curve" smooth="yes"/>
      <point x="758" y="1034"/>
      <point x="809" y="1007"/>
      <point x="850" y="978" type="curve" smooth="yes"/>
      <point x="852" y="977"/>
      <point x="854" y="976"/>
      <point x="855" y="976" type="curve" smooth="yes"/>
      <point x="869" y="976"/>
      <point x="883" y="1003"/>
      <point x="883" y="1024" type="curve" smooth="yes"/>
      <point x="883" y="1033"/>
      <point x="882" y="1041"/>
      <point x="877" y="1045" type="curve" smooth="yes"/>
      <point x="834" y="1084"/>
      <point x="772" y="1112"/>
      <point x="688" y="1112" type="curve" smooth="yes"/>
      <point x="545" y="1112"/>
      <point x="389" y="1005"/>
      <point x="389" y="728" type="curve" smooth="yes"/>
      <point x="389" y="462"/>
      <point x="527" y="338"/>
    </contour>
    <contour>
      <point x="676" y="64" type="curve" smooth="yes"/>
      <point x="310" y="64"/>
      <point x="182" y="400"/>
      <point x="182" y="715" type="curve" smooth="yes"/>
      <point x="182" y="1041"/>
      <point x="310" y="1375"/>
      <point x="676" y="1375" type="curve" smooth="yes"/>
      <point x="1042" y="1375"/>
      <point x="1170" y="1041"/>
      <point x="1170" y="715" type="curve" smooth="yes"/>
      <point x="1170" y="400"/>
      <point x="1042" y="64"/>
    </contour>
    <contour>
      <point x="674" y="-14" type="curve" smooth="yes"/>
      <point x="1083" y="-14"/>
      <point x="1257" y="331"/>
      <point x="1257" y="719" type="curve" smooth="yes"/>
      <point x="1257" y="1106"/>
      <point x="1083" y="1453"/>
      <point x="674" y="1453" type="curve" smooth="yes"/>
      <point x="267" y="1453"/>
      <point x="91" y="1106"/>
      <point x="91" y="719" type="curve" smooth="yes"/>
      <point x="91" y="331"/>
      <point x="267" y="-14"/>
    </contour>
  </outline>
</glyph>
<glyph name="degree" format="1">
  <advance width="647"/>
  <unicode hex="00B0"/>
  <outline>
    <contour>
      <point x="324" y="1160" type="curve" smooth="yes"/>
      <point x="284" y="1160"/>
      <point x="228" y="1185"/>
      <point x="228" y="1274" type="curve" smooth="yes"/>
      <point x="228" y="1372"/>
      <point x="286" y="1389"/>
      <point x="324" y="1389" type="curve" smooth="yes"/>
      <point x="359" y="1389"/>
      <point x="420" y="1372"/>
      <point x="420" y="1274" type="curve" smooth="yes"/>
      <point x="420" y="1184"/>
      <point x="363" y="1160"/>
    </contour>
    <contour>
      <point x="324" y="1112" type="curve" smooth="yes"/>
      <point x="377" y="1112"/>
      <point x="478" y="1144"/>
      <point x="478" y="1274" type="curve" smooth="yes"/>
      <point x="478" y="1410"/>
      <point x="382" y="1438"/>
      <point x="324" y="1438" type="curve" smooth="yes"/>
      <point x="264" y="1438"/>
      <point x="168" y="1410"/>
      <point x="168" y="1274" type="curve" smooth="yes"/>
      <point x="168" y="1143"/>
      <point x="269" y="1112"/>
    </contour>
  </outline>
</glyph>
<glyph name="plusminus" format="1">
  <advance width="801"/>
  <unicode hex="00B1"/>
  <outline>
    <contour>
      <point x="395" y="336" type="curve" smooth="yes"/>
      <point x="427" y="336" type="line" smooth="yes"/>
      <point x="445" y="336"/>
      <point x="458" y="340"/>
      <point x="458" y="381" type="curve" smooth="yes"/>
      <point x="458" y="579" type="line" smooth="yes"/>
      <point x="458" y="599"/>
      <point x="465" y="601"/>
      <point x="475" y="601" type="curve" smooth="yes"/>
      <point x="660" y="601" type="line" smooth="yes"/>
      <point x="676" y="601"/>
      <point x="691" y="605"/>
      <point x="691" y="638" type="curve" smooth="yes"/>
      <point x="691" y="653" type="line" smooth="yes"/>
      <point x="691" y="687"/>
      <point x="676" y="690"/>
      <point x="660" y="690" type="curve" smooth="yes"/>
      <point x="475" y="690" type="line" smooth="yes"/>
      <point x="465" y="690"/>
      <point x="458" y="692"/>
      <point x="458" y="712" type="curve" smooth="yes"/>
      <point x="458" y="905" type="line" smooth="yes"/>
      <point x="458" y="946"/>
      <point x="445" y="950"/>
      <point x="427" y="950" type="curve" smooth="yes"/>
      <point x="395" y="950" type="line" smooth="yes"/>
      <point x="376" y="950"/>
      <point x="362" y="946"/>
      <point x="362" y="905" type="curve" smooth="yes"/>
      <point x="362" y="712" type="line" smooth="yes"/>
      <point x="362" y="692"/>
      <point x="356" y="690"/>
      <point x="347" y="690" type="curve" smooth="yes"/>
      <point x="159" y="690" type="line" smooth="yes"/>
      <point x="142" y="690"/>
      <point x="128" y="687"/>
      <point x="128" y="653" type="curve" smooth="yes"/>
      <point x="128" y="638" type="line" smooth="yes"/>
      <point x="128" y="605"/>
      <point x="142" y="601"/>
      <point x="159" y="601" type="curve" smooth="yes"/>
      <point x="347" y="601" type="line" smooth="yes"/>
      <point x="356" y="601"/>
      <point x="362" y="599"/>
      <point x="362" y="579" type="curve" smooth="yes"/>
      <point x="362" y="381" type="line" smooth="yes"/>
      <point x="362" y="340"/>
      <point x="376" y="336"/>
    </contour>
    <contour>
      <point x="158" y="95" type="curve" smooth="yes"/>
      <point x="660" y="95" type="line" smooth="yes"/>
      <point x="676" y="95"/>
      <point x="691" y="99"/>
      <point x="691" y="132" type="curve" smooth="yes"/>
      <point x="691" y="147" type="line" smooth="yes"/>
      <point x="691" y="181"/>
      <point x="676" y="184"/>
      <point x="660" y="184" type="curve" smooth="yes"/>
      <point x="158" y="184" type="line" smooth="yes"/>
      <point x="141" y="184"/>
      <point x="127" y="181"/>
      <point x="127" y="147" type="curve" smooth="yes"/>
      <point x="127" y="132" type="line" smooth="yes"/>
      <point x="127" y="99"/>
      <point x="141" y="95"/>
    </contour>
  </outline>
</glyph>
<glyph name="ordmasculine" format="1">
  <advance width="702"/>
  <unicode hex="00BA"/>
  <outline>
    <contour>
      <point x="352" y="681" type="curve" smooth="yes"/>
      <point x="278" y="681"/>
      <point x="221" y="730"/>
      <point x="221" y="1026" type="curve" smooth="yes"/>
      <point x="221" y="1333"/>
      <point x="282" y="1370"/>
      <point x="352" y="1370" type="curve" smooth="yes"/>
      <point x="421" y="1370"/>
      <point x="482" y="1335"/>
      <point x="482" y="1026" type="curve" smooth="yes"/>
      <point x="482" y="728"/>
      <point x="424" y="681"/>
    </contour>
    <contour>
      <point x="353" y="613" type="curve" smooth="yes"/>
      <point x="453" y="613"/>
      <point x="568" y="665"/>
      <point x="568" y="1026" type="curve" smooth="yes"/>
      <point x="568" y="1392"/>
      <point x="459" y="1438"/>
      <point x="353" y="1438" type="curve" smooth="yes"/>
      <point x="247" y="1438"/>
      <point x="134" y="1392"/>
      <point x="134" y="1026" type="curve" smooth="yes"/>
      <point x="134" y="664"/>
      <point x="251" y="613"/>
    </contour>
  </outline>
</glyph>
<glyph name="guillemotright" format="1">
  <advance width="714"/>
  <unicode hex="00BB"/>
  <outline>
    <contour>
      <point x="71" y="233" type="curve" smooth="yes"/>
      <point x="75" y="233"/>
      <point x="79" y="238"/>
      <point x="85" y="243" type="curve" smooth="yes"/>
      <point x="362" y="512" type="line" smooth="yes"/>
      <point x="384" y="532"/>
      <point x="387" y="554"/>
      <point x="387" y="581" type="curve" smooth="yes"/>
      <point x="387" y="657" type="line" smooth="yes"/>
      <point x="387" y="685"/>
      <point x="384" y="704"/>
      <point x="361" y="727" type="curve" smooth="yes"/>
      <point x="86" y="1016" type="line" smooth="yes"/>
      <point x="81" y="1022"/>
      <point x="77" y="1024"/>
      <point x="73" y="1024" type="curve" smooth="yes"/>
      <point x="66" y="1024"/>
      <point x="62" y="1011"/>
      <point x="62" y="984" type="curve" smooth="yes"/>
      <point x="62" y="940" type="line" smooth="yes"/>
      <point x="62" y="897"/>
      <point x="67" y="888"/>
      <point x="85" y="867" type="curve"/>
      <point x="311" y="631" type="line" smooth="yes"/>
      <point x="314" y="628"/>
      <point x="315" y="622"/>
      <point x="315" y="617" type="curve" smooth="yes"/>
      <point x="315" y="613"/>
      <point x="314" y="607"/>
      <point x="311" y="604" type="curve" smooth="yes"/>
      <point x="86" y="388" type="line" smooth="yes"/>
      <point x="67" y="369"/>
      <point x="62" y="362"/>
      <point x="62" y="319" type="curve" smooth="yes"/>
      <point x="62" y="268" type="line" smooth="yes"/>
      <point x="62" y="243"/>
      <point x="66" y="233"/>
    </contour>
    <contour>
      <point x="342" y="233" type="curve" smooth="yes"/>
      <point x="346" y="233"/>
      <point x="350" y="238"/>
      <point x="355" y="243" type="curve" smooth="yes"/>
      <point x="632" y="512" type="line" smooth="yes"/>
      <point x="654" y="532"/>
      <point x="657" y="554"/>
      <point x="657" y="581" type="curve" smooth="yes"/>
      <point x="657" y="657" type="line" smooth="yes"/>
      <point x="657" y="685"/>
      <point x="654" y="704"/>
      <point x="632" y="727" type="curve" smooth="yes"/>
      <point x="356" y="1016" type="line" smooth="yes"/>
      <point x="351" y="1022"/>
      <point x="347" y="1024"/>
      <point x="344" y="1024" type="curve" smooth="yes"/>
      <point x="337" y="1024"/>
      <point x="332" y="1011"/>
      <point x="332" y="984" type="curve" smooth="yes"/>
      <point x="332" y="940" type="line" smooth="yes"/>
      <point x="332" y="897"/>
      <point x="337" y="888"/>
      <point x="356" y="867" type="curve" smooth="yes"/>
      <point x="582" y="631" type="line" smooth="yes"/>
      <point x="585" y="628"/>
      <point x="585" y="622"/>
      <point x="585" y="617" type="curve" smooth="yes"/>
      <point x="585" y="613"/>
      <point x="584" y="607"/>
      <point x="581" y="604" type="curve" smooth="yes"/>
      <point x="356" y="388" type="line"/>
      <point x="338" y="369"/>
      <point x="332" y="362"/>
      <point x="332" y="319" type="curve" smooth="yes"/>
      <point x="332" y="268" type="line" smooth="yes"/>
      <point x="332" y="243"/>
      <point x="337" y="233"/>
    </contour>
  </outline>
</glyph>
<glyph name="threequarters" format="1">
  <advance width="1869"/>
  <unicode hex="00BE"/>
  <outline>
    <contour>
      <point x="517" y="1132" type="curve" smooth="yes"/>
      <point x="517" y="972"/>
      <point x="465" y="915"/>
      <point x="331" y="915" type="curve" smooth="yes"/>
      <point x="316" y="915"/>
      <point x="314" y="904"/>
      <point x="314" y="895" type="curve" smooth="yes"/>
      <point x="314" y="853" type="line" smooth="yes"/>
      <point x="314" y="839"/>
      <point x="317" y="832"/>
      <point x="331" y="832" type="curve" smooth="yes"/>
      <point x="360" y="832" type="line" smooth="yes"/>
      <point x="470" y="828"/>
      <point x="528" y="774"/>
      <point x="529" y="599" type="curve" smooth="yes"/>
      <point x="529" y="417"/>
      <point x="474" y="349"/>
      <point x="346" y="349" type="curve" smooth="yes"/>
      <point x="265" y="349"/>
      <point x="223" y="369"/>
      <point x="193" y="386" type="curve"/>
      <point x="190" y="389"/>
      <point x="188" y="386"/>
      <point x="187" y="380" type="curve"/>
      <point x="181" y="380"/>
      <point x="178" y="353"/>
      <point x="178" y="343" type="curve" smooth="yes"/>
      <point x="178" y="333"/>
      <point x="181" y="315"/>
      <point x="188" y="310" type="curve" smooth="yes"/>
      <point x="226" y="288"/>
      <point x="286" y="275"/>
      <point x="352" y="275" type="curve" smooth="yes"/>
      <point x="486" y="275"/>
      <point x="614" y="333"/>
      <point x="614" y="582" type="curve" smooth="yes"/>
      <point x="614" y="743"/>
      <point x="567" y="852"/>
      <point x="449" y="873" type="curve"/>
      <point x="553" y="903"/>
      <point x="605" y="981"/>
      <point x="605" y="1135" type="curve" smooth="yes"/>
      <point x="605" y="1374"/>
      <point x="499" y="1447"/>
      <point x="364" y="1447" type="curve" smooth="yes"/>
      <point x="303" y="1447"/>
      <point x="241" y="1434"/>
      <point x="186" y="1402" type="curve" smooth="yes"/>
      <point x="177" y="1396"/>
      <point x="173" y="1378"/>
      <point x="173" y="1368" type="curve" smooth="yes"/>
      <point x="173" y="1358"/>
      <point x="178" y="1333"/>
      <point x="182" y="1333" type="curve"/>
      <point x="183" y="1327"/>
      <point x="184" y="1326"/>
      <point x="187" y="1328" type="curve" smooth="yes"/>
      <point x="225" y="1350"/>
      <point x="280" y="1372"/>
      <point x="358" y="1372" type="curve" smooth="yes"/>
      <point x="461" y="1372"/>
      <point x="517" y="1311"/>
    </contour>
    <contour>
      <point x="735" y="121" type="curve" smooth="yes"/>
      <point x="782" y="121" type="line" smooth="yes"/>
      <point x="787" y="121"/>
      <point x="794" y="132"/>
      <point x="796" y="148" type="curve" smooth="yes"/>
      <point x="1036" y="1576" type="line" smooth="yes"/>
      <point x="1038" y="1588"/>
      <point x="1035" y="1603"/>
      <point x="1030" y="1603" type="curve" smooth="yes"/>
      <point x="985" y="1603" type="line" smooth="yes"/>
      <point x="979" y="1603"/>
      <point x="972" y="1592"/>
      <point x="970" y="1576" type="curve" smooth="yes"/>
      <point x="730" y="148" type="line" smooth="yes"/>
      <point x="729" y="145"/>
      <point x="729" y="143"/>
      <point x="729" y="140" type="curve" smooth="yes"/>
      <point x="729" y="130"/>
      <point x="732" y="121"/>
    </contour>
    <contour>
      <point x="1551" y="285" type="curve" smooth="yes"/>
      <point x="1581" y="285" type="line" smooth="yes"/>
      <point x="1599" y="285"/>
      <point x="1609" y="292"/>
      <point x="1609" y="326" type="curve" smooth="yes"/>
      <point x="1609" y="512" type="line"/>
      <point x="1738" y="512" type="line" smooth="yes"/>
      <point x="1769" y="512"/>
      <point x="1779" y="517"/>
      <point x="1779" y="546" type="curve" smooth="yes"/>
      <point x="1779" y="564" type="line" smooth="yes"/>
      <point x="1779" y="593"/>
      <point x="1769" y="597"/>
      <point x="1738" y="597" type="curve" smooth="yes"/>
      <point x="1609" y="597" type="line"/>
      <point x="1609" y="1393" type="line" smooth="yes"/>
      <point x="1609" y="1427"/>
      <point x="1599" y="1436"/>
      <point x="1581" y="1436" type="curve" smooth="yes"/>
      <point x="1551" y="1436" type="line" smooth="yes"/>
      <point x="1533" y="1436"/>
      <point x="1523" y="1427"/>
      <point x="1523" y="1393" type="curve" smooth="yes"/>
      <point x="1523" y="597" type="line"/>
      <point x="1288" y="597" type="line" smooth="yes"/>
      <point x="1273" y="597"/>
      <point x="1271" y="605"/>
      <point x="1273" y="616" type="curve" smooth="yes"/>
      <point x="1365" y="1382" type="line" smooth="yes"/>
      <point x="1366" y="1387"/>
      <point x="1366" y="1393"/>
      <point x="1366" y="1400" type="curve" smooth="yes"/>
      <point x="1366" y="1417"/>
      <point x="1362" y="1436"/>
      <point x="1344" y="1436" type="curve" smooth="yes"/>
      <point x="1313" y="1436" type="line" smooth="yes"/>
      <point x="1293" y="1436"/>
      <point x="1288" y="1416"/>
      <point x="1283" y="1382" type="curve" smooth="yes"/>
      <point x="1175" y="566" type="line" smooth="yes"/>
      <point x="1174" y="562"/>
      <point x="1174" y="559"/>
      <point x="1174" y="556" type="curve" smooth="yes"/>
      <point x="1174" y="527"/>
      <point x="1196" y="512"/>
      <point x="1224" y="512" type="curve" smooth="yes"/>
      <point x="1523" y="512" type="line"/>
      <point x="1523" y="326" type="line" smooth="yes"/>
      <point x="1523" y="292"/>
      <point x="1533" y="285"/>
    </contour>
  </outline>
</glyph>
<glyph name="Eth" format="1">
  <advance width="899"/>
  <unicode hex="00D0"/>
  <outline>
    <contour>
      <point x="234" y="90" type="line" smooth="yes"/>
      <point x="226" y="90"/>
      <point x="222" y="95"/>
      <point x="222" y="110" type="curve" smooth="yes"/>
      <point x="222" y="686" type="line"/>
      <point x="395" y="686" type="line" smooth="yes"/>
      <point x="412" y="686"/>
      <point x="423" y="689"/>
      <point x="426" y="711" type="curve"/>
      <point x="426" y="738" type="line" smooth="yes"/>
      <point x="426" y="767"/>
      <point x="414" y="770"/>
      <point x="395" y="770" type="curve" smooth="yes"/>
      <point x="222" y="770" type="line"/>
      <point x="222" y="1331" type="line" smooth="yes"/>
      <point x="222" y="1343"/>
      <point x="227" y="1348"/>
      <point x="233" y="1348" type="curve" smooth="yes"/>
      <point x="426" y="1348" type="line" smooth="yes"/>
      <point x="626" y="1348"/>
      <point x="697" y="1162"/>
      <point x="697" y="723" type="curve" smooth="yes"/>
      <point x="697" y="235"/>
      <point x="642" y="90"/>
      <point x="423" y="90" type="curve" smooth="yes"/>
    </contour>
    <contour>
      <point x="131" y="0" type="curve" smooth="yes"/>
      <point x="426" y="0" type="line" smooth="yes"/>
      <point x="699" y="0"/>
      <point x="812" y="116"/>
      <point x="812" y="723" type="curve" smooth="yes"/>
      <point x="812" y="1287"/>
      <point x="671" y="1438"/>
      <point x="434" y="1438" type="curve" smooth="yes"/>
      <point x="131" y="1438" type="line" smooth="yes"/>
      <point x="116" y="1438"/>
      <point x="108" y="1434"/>
      <point x="108" y="1407" type="curve" smooth="yes"/>
      <point x="108" y="770" type="line"/>
      <point x="37" y="770" type="line" smooth="yes"/>
      <point x="18" y="770"/>
      <point x="6" y="767"/>
      <point x="6" y="737" type="curve" smooth="yes"/>
      <point x="6" y="718" type="line" smooth="yes"/>
      <point x="6" y="690"/>
      <point x="18" y="686"/>
      <point x="37" y="686" type="curve" smooth="yes"/>
      <point x="108" y="686" type="line"/>
      <point x="108" y="39" type="line" smooth="yes"/>
      <point x="108" y="4"/>
      <point x="116" y="0"/>
    </contour>
  </outline>
</glyph>
<glyph name="multiply" format="1">
  <advance width="801"/>
  <unicode hex="00D7"/>
  <outline>
    <contour>
      <point x="203" y="377" type="line" smooth="yes"/>
      <point x="210" y="371"/>
      <point x="217" y="365"/>
      <point x="225" y="365" type="curve" smooth="yes"/>
      <point x="233" y="365"/>
      <point x="243" y="371"/>
      <point x="258" y="386" type="curve" smooth="yes"/>
      <point x="410" y="537" type="line"/>
      <point x="561" y="386" type="line" smooth="yes"/>
      <point x="576" y="371"/>
      <point x="586" y="366"/>
      <point x="595" y="366" type="curve" smooth="yes"/>
      <point x="603" y="366"/>
      <point x="610" y="371"/>
      <point x="616" y="377" type="curve" smooth="yes"/>
      <point x="639" y="401" type="line" smooth="yes"/>
      <point x="645" y="407"/>
      <point x="650" y="412"/>
      <point x="650" y="420" type="curve" smooth="yes"/>
      <point x="650" y="428"/>
      <point x="644" y="439"/>
      <point x="629" y="454" type="curve" smooth="yes"/>
      <point x="478" y="605" type="line"/>
      <point x="629" y="756" type="line" smooth="yes"/>
      <point x="644" y="771"/>
      <point x="649" y="781"/>
      <point x="649" y="790" type="curve" smooth="yes"/>
      <point x="649" y="798"/>
      <point x="644" y="805"/>
      <point x="638" y="811" type="curve" smooth="yes"/>
      <point x="615" y="834" type="line" smooth="yes"/>
      <point x="609" y="840"/>
      <point x="603" y="844"/>
      <point x="595" y="844" type="curve" smooth="yes"/>
      <point x="587" y="844"/>
      <point x="576" y="839"/>
      <point x="561" y="824" type="curve" smooth="yes"/>
      <point x="410" y="673" type="line"/>
      <point x="258" y="824" type="line" smooth="yes"/>
      <point x="243" y="840"/>
      <point x="232" y="845"/>
      <point x="224" y="845" type="curve" smooth="yes"/>
      <point x="216" y="845"/>
      <point x="211" y="840"/>
      <point x="205" y="834" type="curve" smooth="yes"/>
      <point x="182" y="811" type="line" smooth="yes"/>
      <point x="176" y="805"/>
      <point x="171" y="798"/>
      <point x="171" y="790" type="curve" smooth="yes"/>
      <point x="171" y="781"/>
      <point x="176" y="771"/>
      <point x="191" y="756" type="curve" smooth="yes"/>
      <point x="342" y="605" type="line"/>
      <point x="191" y="454" type="line" smooth="yes"/>
      <point x="176" y="439"/>
      <point x="170" y="428"/>
      <point x="170" y="420" type="curve" smooth="yes"/>
      <point x="170" y="412"/>
      <point x="175" y="406"/>
      <point x="181" y="400" type="curve" smooth="yes"/>
    </contour>
  </outline>
</glyph>
<glyph name="Oslash" format="1">
  <advance width="870"/>
  <unicode hex="00D8"/>
  <outline>
    <contour>
      <point x="293" y="-205" type="curve" smooth="yes"/>
      <point x="342" y="-205" type="line" smooth="yes"/>
      <point x="348" y="-205"/>
      <point x="354" y="-192"/>
      <point x="357" y="-172" type="curve" smooth="yes"/>
      <point x="379" y="-11" type="line"/>
      <point x="396" y="-13"/>
      <point x="415" y="-14"/>
      <point x="434" y="-14" type="curve" smooth="yes"/>
      <point x="690" y="-14"/>
      <point x="781" y="120"/>
      <point x="781" y="725" type="curve" smooth="yes"/>
      <point x="781" y="1163"/>
      <point x="725" y="1360"/>
      <point x="582" y="1426" type="curve"/>
      <point x="609" y="1614" type="line" smooth="yes"/>
      <point x="611" y="1629"/>
      <point x="608" y="1647"/>
      <point x="603" y="1647" type="curve" smooth="yes"/>
      <point x="555" y="1647" type="line" smooth="yes"/>
      <point x="548" y="1647"/>
      <point x="541" y="1634"/>
      <point x="539" y="1614" type="curve" smooth="yes"/>
      <point x="516" y="1446" type="line"/>
      <point x="491" y="1451"/>
      <point x="464" y="1453"/>
      <point x="434" y="1453" type="curve" smooth="yes"/>
      <point x="184" y="1453"/>
      <point x="89" y="1283"/>
      <point x="89" y="725" type="curve" smooth="yes"/>
      <point x="89" y="237"/>
      <point x="151" y="53"/>
      <point x="312" y="2" type="curve"/>
      <point x="287" y="-172" type="line"/>
      <point x="284" y="-184"/>
      <point x="289" y="-205"/>
    </contour>
    <contour>
      <point x="328" y="119" type="line"/>
      <point x="240" y="177"/>
      <point x="204" y="337"/>
      <point x="204" y="725" type="curve" smooth="yes"/>
      <point x="204" y="1200"/>
      <point x="261" y="1360"/>
      <point x="434" y="1360" type="curve" smooth="yes"/>
      <point x="459" y="1360"/>
      <point x="482" y="1356"/>
      <point x="502" y="1351" type="curve"/>
    </contour>
    <contour>
      <point x="434" y="80" type="curve" smooth="yes"/>
      <point x="419" y="80"/>
      <point x="406" y="81"/>
      <point x="393" y="83" type="curve"/>
      <point x="564" y="1297" type="line"/>
      <point x="638" y="1222"/>
      <point x="666" y="1052"/>
      <point x="666" y="725" type="curve" smooth="yes"/>
      <point x="666" y="185"/>
      <point x="605" y="80"/>
    </contour>
  </outline>
</glyph>
<glyph name="Thorn" format="1">
  <advance width="796"/>
  <unicode hex="00DE"/>
  <outline>
    <contour>
      <point x="131" y="0" type="curve" smooth="yes"/>
      <point x="199" y="0" type="line" smooth="yes"/>
      <point x="214" y="0"/>
      <point x="222" y="8"/>
      <point x="222" y="45" type="curve" smooth="yes"/>
      <point x="222" y="364" type="line" smooth="yes"/>
      <point x="222" y="375"/>
      <point x="225" y="378"/>
      <point x="230" y="378" type="curve" smooth="yes"/>
      <point x="396" y="378" type="line" smooth="yes"/>
      <point x="576" y="378"/>
      <point x="736" y="402"/>
      <point x="736" y="771" type="curve" smooth="yes"/>
      <point x="736" y="1168"/>
      <point x="551" y="1180"/>
      <point x="364" y="1180" type="curve" smooth="yes"/>
      <point x="222" y="1180" type="line"/>
      <point x="222" y="1361" type="line" smooth="yes"/>
      <point x="222" y="1400"/>
      <point x="214" y="1406"/>
      <point x="199" y="1406" type="curve" smooth="yes"/>
      <point x="131" y="1406" type="line" smooth="yes"/>
      <point x="116" y="1406"/>
      <point x="108" y="1399"/>
      <point x="108" y="1361" type="curve" smooth="yes"/>
      <point x="108" y="45" type="line" smooth="yes"/>
      <point x="108" y="7"/>
      <point x="116" y="0"/>
    </contour>
    <contour>
      <point x="229" y="469" type="line" smooth="yes"/>
      <point x="224" y="469"/>
      <point x="222" y="473"/>
      <point x="222" y="481" type="curve" smooth="yes"/>
      <point x="222" y="1077" type="line" smooth="yes"/>
      <point x="222" y="1086"/>
      <point x="225" y="1090"/>
      <point x="230" y="1090" type="curve" smooth="yes"/>
      <point x="360" y="1090" type="line" smooth="yes"/>
      <point x="511" y="1090"/>
      <point x="622" y="1082"/>
      <point x="622" y="771" type="curve" smooth="yes"/>
      <point x="622" y="494"/>
      <point x="546" y="469"/>
      <point x="388" y="469" type="curve" smooth="yes"/>
    </contour>
  </outline>
</glyph>
<glyph name="eth" format="1">
  <advance width="758"/>
  <unicode hex="00F0"/>
  <outline>
    <contour>
      <point x="371" y="-14" type="curve" smooth="yes"/>
      <point x="611" y="-14"/>
      <point x="676" y="176"/>
      <point x="676" y="516" type="curve" smooth="yes"/>
      <point x="676" y="760"/>
      <point x="597" y="968"/>
      <point x="466" y="1139" type="curve"/>
      <point x="623" y="1217" type="line"/>
      <point x="644" y="1229"/>
      <point x="640" y="1246"/>
      <point x="624" y="1268" type="curve"/>
      <point x="612" y="1292"/>
      <point x="600" y="1291"/>
      <point x="587" y="1282" type="curve"/>
      <point x="415" y="1193" type="line"/>
      <point x="353" y="1257"/>
      <point x="283" y="1309"/>
      <point x="209" y="1353" type="curve" smooth="yes"/>
      <point x="207" y="1354"/>
      <point x="205" y="1354"/>
      <point x="203" y="1354" type="curve" smooth="yes"/>
      <point x="198" y="1354"/>
      <point x="193" y="1351"/>
      <point x="190" y="1345" type="curve"/>
      <point x="174" y="1345"/>
      <point x="154" y="1320"/>
      <point x="154" y="1310" type="curve" smooth="yes"/>
      <point x="154" y="1302"/>
      <point x="159" y="1298"/>
      <point x="162" y="1296" type="curve" smooth="yes"/>
      <point x="230" y="1252"/>
      <point x="290" y="1202"/>
      <point x="344" y="1147" type="curve"/>
      <point x="194" y="1072" type="line"/>
      <point x="176" y="1061"/>
      <point x="176" y="1045"/>
      <point x="192" y="1022" type="curve"/>
      <point x="205" y="1000"/>
      <point x="215" y="1000"/>
      <point x="229" y="1008" type="curve" smooth="yes"/>
      <point x="396" y="1094" type="line"/>
      <point x="472" y="990"/>
      <point x="525" y="882"/>
      <point x="545" y="783" type="curve"/>
      <point x="486" y="843"/>
      <point x="423" y="861"/>
      <point x="364" y="861" type="curve" smooth="yes"/>
      <point x="141" y="861"/>
      <point x="64" y="672"/>
      <point x="64" y="427" type="curve" smooth="yes"/>
      <point x="64" y="73"/>
      <point x="202" y="-14"/>
    </contour>
    <contour>
      <point x="368" y="70" type="curve" smooth="yes"/>
      <point x="236" y="70"/>
      <point x="167" y="157"/>
      <point x="167" y="439" type="curve" smooth="yes"/>
      <point x="167" y="612"/>
      <point x="200" y="775"/>
      <point x="357" y="775" type="curve" smooth="yes"/>
      <point x="514" y="775"/>
      <point x="573" y="658"/>
      <point x="573" y="478" type="curve" smooth="yes"/>
      <point x="573" y="116"/>
      <point x="468" y="70"/>
    </contour>
  </outline>
</glyph>
<glyph name="Lslash" format="1">
  <advance width="574"/>
  <unicode hex="0141"/>
  <outline>
    <contour>
      <point x="500" y="0" type="line" smooth="yes"/>
      <point x="514" y="0"/>
      <point x="524" y="1"/>
      <point x="524" y="31" type="curve" smooth="yes"/>
      <point x="524" y="61" type="line" smooth="yes"/>
      <point x="524" y="90"/>
      <point x="514" y="90"/>
      <point x="500" y="90" type="curve" smooth="yes"/>
      <point x="236" y="90" type="line" smooth="yes"/>
      <point x="228" y="90"/>
      <point x="222" y="90"/>
      <point x="222" y="110" type="curve" smooth="yes"/>
      <point x="222" y="744" type="line"/>
      <point x="390" y="794" type="line" smooth="yes"/>
      <point x="403" y="798"/>
      <point x="413" y="796"/>
      <point x="413" y="824" type="curve" smooth="yes"/>
      <point x="413" y="861" type="line" smooth="yes"/>
      <point x="413" y="888"/>
      <point x="403" y="895"/>
      <point x="390" y="891" type="curve" smooth="yes"/>
      <point x="222" y="841" type="line"/>
      <point x="222" y="1391" type="line" smooth="yes"/>
      <point x="222" y="1434"/>
      <point x="214" y="1438"/>
      <point x="199" y="1438" type="curve" smooth="yes"/>
      <point x="131" y="1438" type="line" smooth="yes"/>
      <point x="116" y="1438"/>
      <point x="108" y="1434"/>
      <point x="108" y="1391" type="curve" smooth="yes"/>
      <point x="108" y="808" type="line"/>
      <point x="27" y="784" type="line" smooth="yes"/>
      <point x="14" y="780"/>
      <point x="3" y="781"/>
      <point x="3" y="753" type="curve" smooth="yes"/>
      <point x="3" y="717" type="line" smooth="yes"/>
      <point x="3" y="689"/>
      <point x="13" y="683"/>
      <point x="27" y="687" type="curve" smooth="yes"/>
      <point x="108" y="711" type="line"/>
      <point x="108" y="47" type="line" smooth="yes"/>
      <point x="108" y="4"/>
      <point x="116" y="0"/>
      <point x="131" y="0" type="curve" smooth="yes"/>
    </contour>
  </outline>
</glyph>
<glyph name="lslash" format="1">
  <advance width="306"/>
  <unicode hex="0142"/>
  <outline>
    <contour>
      <point x="189" y="0" type="line" smooth="yes"/>
      <point x="204" y="0"/>
      <point x="212" y="20"/>
      <point x="212" y="63" type="curve" smooth="yes"/>
      <point x="212" y="799" type="line"/>
      <point x="325" y="828" type="line" smooth="yes"/>
      <point x="339" y="832"/>
      <point x="352" y="824"/>
      <point x="352" y="867" type="curve" smooth="yes"/>
      <point x="352" y="897" type="line" smooth="yes"/>
      <point x="352" y="940"/>
      <point x="339" y="940"/>
      <point x="325" y="936" type="curve" smooth="yes"/>
      <point x="212" y="907" type="line"/>
      <point x="212" y="1380" type="line" smooth="yes"/>
      <point x="212" y="1423"/>
      <point x="204" y="1445"/>
      <point x="189" y="1445" type="curve" smooth="yes"/>
      <point x="132" y="1445" type="line" smooth="yes"/>
      <point x="118" y="1445"/>
      <point x="109" y="1423"/>
      <point x="109" y="1380" type="curve" smooth="yes"/>
      <point x="109" y="880" type="line"/>
      <point x="-7" y="850" type="line" smooth="yes"/>
      <point x="-21" y="846"/>
      <point x="-34" y="854"/>
      <point x="-34" y="811" type="curve" smooth="yes"/>
      <point x="-34" y="781" type="line" smooth="yes"/>
      <point x="-34" y="738"/>
      <point x="-21" y="738"/>
      <point x="-7" y="742" type="curve" smooth="yes"/>
      <point x="109" y="772" type="line"/>
      <point x="109" y="63" type="line" smooth="yes"/>
      <point x="109" y="20"/>
      <point x="118" y="0"/>
      <point x="132" y="0" type="curve" smooth="yes"/>
    </contour>
  </outline>
</glyph>
<glyph name="uni0237" format="1">
  <advance width="343"/>
  <unicode hex="0237"/>
  <outline>
    <contour>
      <point x="37" y="-304" type="curve" smooth="yes"/>
      <point x="90" y="-304" type="line" smooth="yes"/>
      <point x="196" y="-304"/>
      <point x="245" y="-274"/>
      <point x="245" y="3" type="curve" smooth="yes"/>
      <point x="245" y="953" type="line" smooth="yes"/>
      <point x="245" y="996"/>
      <point x="237" y="1006"/>
      <point x="221" y="1006" type="curve" smooth="yes"/>
      <point x="165" y="1006" type="line" smooth="yes"/>
      <point x="151" y="1006"/>
      <point x="142" y="996"/>
      <point x="142" y="953" type="curve" smooth="yes"/>
      <point x="142" y="11" type="line" smooth="yes"/>
      <point x="142" y="-160"/>
      <point x="129" y="-198"/>
      <point x="76" y="-198" type="curve" smooth="yes"/>
      <point x="37" y="-198" type="line" smooth="yes"/>
      <point x="21" y="-198"/>
      <point x="16" y="-210"/>
      <point x="16" y="-229" type="curve" smooth="yes"/>
      <point x="16" y="-269" type="line" smooth="yes"/>
      <point x="16" y="-291"/>
      <point x="22" y="-304"/>
    </contour>
  </outline>
</glyph>
<glyph name="breve" format="1">
  <advance width="1277"/>
  <unicode hex="02D8"/>
  <outline>
    <contour>
      <point x="601" y="1293" type="curve" smooth="yes"/>
      <point x="689" y="1293"/>
      <point x="778" y="1349"/>
      <point x="778" y="1467" type="curve"/>
      <point x="711" y="1467" type="line"/>
      <point x="711" y="1401"/>
      <point x="656" y="1372"/>
      <point x="602" y="1372" type="curve" smooth="yes"/>
      <point x="548" y="1372"/>
      <point x="495" y="1401"/>
      <point x="495" y="1467" type="curve"/>
      <point x="427" y="1467" type="line"/>
      <point x="427" y="1348"/>
      <point x="514" y="1293"/>
    </contour>
  </outline>
</glyph>
<glyph name="ring" format="1">
  <advance width="803"/>
  <unicode hex="02DA"/>
  <outline>
    <contour>
      <point x="400" y="539" type="curve" smooth="yes"/>
      <point x="360" y="539"/>
      <point x="303" y="564"/>
      <point x="303" y="653" type="curve" smooth="yes"/>
      <point x="303" y="751"/>
      <point x="362" y="768"/>
      <point x="400" y="768" type="curve" smooth="yes"/>
      <point x="435" y="768"/>
      <point x="495" y="751"/>
      <point x="495" y="653" type="curve" smooth="yes"/>
      <point x="495" y="563"/>
      <point x="439" y="539"/>
    </contour>
    <contour>
      <point x="400" y="491" type="curve" smooth="yes"/>
      <point x="453" y="491"/>
      <point x="554" y="523"/>
      <point x="554" y="653" type="curve" smooth="yes"/>
      <point x="554" y="789"/>
      <point x="458" y="817"/>
      <point x="400" y="817" type="curve" smooth="yes"/>
      <point x="340" y="817"/>
      <point x="244" y="789"/>
      <point x="244" y="653" type="curve" smooth="yes"/>
      <point x="244" y="522"/>
      <point x="345" y="491"/>
    </contour>
  </outline>
</glyph>
<glyph name="hungarumlaut" format="1">
  <advance width="595"/>
  <unicode hex="02DD"/>
  <outline>
    <contour>
      <point x="241" y="1167" type="curve" smooth="yes"/>
      <point x="254" y="1167" type="line" smooth="yes"/>
      <point x="268" y="1167"/>
      <point x="269" y="1183"/>
      <point x="274" y="1206" type="curve" smooth="yes"/>
      <point x="343" y="1538" type="line" smooth="yes"/>
      <point x="346" y="1550"/>
      <point x="347" y="1564"/>
      <point x="347" y="1575" type="curve" smooth="yes"/>
      <point x="347" y="1591"/>
      <point x="345" y="1603"/>
      <point x="338" y="1603" type="curve" smooth="yes"/>
      <point x="274" y="1603" type="line" smooth="yes"/>
      <point x="258" y="1603"/>
      <point x="252" y="1591"/>
      <point x="249" y="1548" type="curve" smooth="yes"/>
      <point x="229" y="1234" type="line" smooth="yes"/>
      <point x="228" y="1220"/>
      <point x="227" y="1208"/>
      <point x="227" y="1199" type="curve" smooth="yes"/>
      <point x="227" y="1172"/>
      <point x="231" y="1167"/>
    </contour>
    <contour>
      <point x="375" y="1167" type="curve" smooth="yes"/>
      <point x="389" y="1167" type="line" smooth="yes"/>
      <point x="401" y="1167"/>
      <point x="403" y="1183"/>
      <point x="407" y="1206" type="curve" smooth="yes"/>
      <point x="478" y="1538" type="line" smooth="yes"/>
      <point x="480" y="1550"/>
      <point x="482" y="1564"/>
      <point x="482" y="1575" type="curve" smooth="yes"/>
      <point x="482" y="1591"/>
      <point x="479" y="1603"/>
      <point x="472" y="1603" type="curve" smooth="yes"/>
      <point x="409" y="1603" type="line" smooth="yes"/>
      <point x="393" y="1603"/>
      <point x="386" y="1591"/>
      <point x="383" y="1548" type="curve" smooth="yes"/>
      <point x="362" y="1234" type="line" smooth="yes"/>
      <point x="361" y="1220"/>
      <point x="361" y="1208"/>
      <point x="361" y="1199" type="curve" smooth="yes"/>
      <point x="361" y="1172"/>
      <point x="365" y="1167"/>
    </contour>
  </outline>
</glyph>
<glyph name="quotesinglbase" format="1">
  <advance width="374"/>
  <unicode hex="201A"/>
  <outline>
    <contour>
      <point x="178" y="-217" type="curve" smooth="yes"/>
      <point x="197" y="-217" type="line" smooth="yes"/>
      <point x="212" y="-217"/>
      <point x="213" y="-194"/>
      <point x="215" y="-156" type="curve" smooth="yes"/>
      <point x="241" y="271" type="line" smooth="yes"/>
      <point x="241" y="276" type="line" smooth="yes"/>
      <point x="241" y="309"/>
      <point x="232" y="341"/>
      <point x="218" y="341" type="curve" smooth="yes"/>
      <point x="156" y="341" type="line" smooth="yes"/>
      <point x="143" y="341"/>
      <point x="132" y="313"/>
      <point x="132" y="282" type="curve" smooth="yes"/>
      <point x="132" y="272" type="line" smooth="yes"/>
      <point x="160" y="-156" type="line" smooth="yes"/>
      <point x="162" y="-194"/>
      <point x="164" y="-217"/>
    </contour>
  </outline>
</glyph>
<glyph name="dagger" format="1">
  <advance width="672"/>
  <unicode hex="2020"/>
  <outline>
    <contour>
      <point x="316" y="0" type="curve" smooth="yes"/>
      <point x="372" y="0" type="line" smooth="yes"/>
      <point x="387" y="0"/>
      <point x="396" y="20"/>
      <point x="396" y="63" type="curve" smooth="yes"/>
      <point x="396" y="960" type="line"/>
      <point x="630" y="960" type="line" smooth="yes"/>
      <point x="673" y="960"/>
      <point x="686" y="969"/>
      <point x="686" y="983" type="curve" smooth="yes"/>
      <point x="686" y="1039" type="line" smooth="yes"/>
      <point x="686" y="1054"/>
      <point x="673" y="1064"/>
      <point x="630" y="1064" type="curve" smooth="yes"/>
      <point x="396" y="1064" type="line"/>
      <point x="396" y="1380" type="line" smooth="yes"/>
      <point x="396" y="1423"/>
      <point x="387" y="1445"/>
      <point x="372" y="1445" type="curve" smooth="yes"/>
      <point x="316" y="1445" type="line" smooth="yes"/>
      <point x="302" y="1445"/>
      <point x="293" y="1423"/>
      <point x="293" y="1380" type="curve" smooth="yes"/>
      <point x="293" y="1064" type="line"/>
      <point x="42" y="1064" type="line" smooth="yes"/>
      <point x="-1" y="1064"/>
      <point x="-14" y="1054"/>
      <point x="-14" y="1039" type="curve" smooth="yes"/>
      <point x="-14" y="983" type="line" smooth="yes"/>
      <point x="-14" y="969"/>
      <point x="-1" y="960"/>
      <point x="42" y="960" type="curve" smooth="yes"/>
      <point x="293" y="960" type="line"/>
      <point x="293" y="63" type="line" smooth="yes"/>
      <point x="293" y="20"/>
      <point x="302" y="0"/>
    </contour>
  </outline>
</glyph>
<glyph name="guilsinglleft" format="1">
  <advance width="457"/>
  <unicode hex="2039"/>
  <outline>
    <contour>
      <point x="376" y="235" type="curve" smooth="yes"/>
      <point x="377" y="235" type="line" smooth="yes"/>
      <point x="381" y="235"/>
      <point x="383" y="241"/>
      <point x="384" y="258" type="curve" smooth="yes"/>
      <point x="385" y="258"/>
      <point x="387" y="285"/>
      <point x="387" y="290" type="curve" smooth="yes"/>
      <point x="387" y="324"/>
      <point x="384" y="354"/>
      <point x="368" y="370" type="curve"/>
      <point x="368" y="379"/>
      <point x="175" y="573"/>
      <point x="172" y="577" type="curve" smooth="yes"/>
      <point x="170" y="579"/>
      <point x="135" y="615"/>
      <point x="135" y="618" type="curve" smooth="yes"/>
      <point x="134" y="623"/>
      <point x="134" y="628"/>
      <point x="136" y="632" type="curve" smooth="yes"/>
      <point x="136" y="633"/>
      <point x="328" y="839"/>
      <point x="329" y="840" type="curve" smooth="yes"/>
      <point x="344" y="856"/>
      <point x="382" y="888"/>
      <point x="382" y="922" type="curve"/>
      <point x="385" y="926"/>
      <point x="387" y="947"/>
      <point x="387" y="956" type="curve" smooth="yes"/>
      <point x="387" y="977"/>
      <point x="384" y="1015"/>
      <point x="378" y="1015" type="curve"/>
      <point x="376" y="1019"/>
      <point x="374" y="1020"/>
      <point x="371" y="1020" type="curve" smooth="yes"/>
      <point x="369" y="1020"/>
      <point x="366" y="1020"/>
      <point x="364" y="1018" type="curve" smooth="yes"/>
      <point x="364" y="1018"/>
      <point x="144" y="785"/>
      <point x="143" y="785" type="curve" smooth="yes"/>
      <point x="124" y="765"/>
      <point x="67" y="701"/>
      <point x="67" y="682" type="curve"/>
      <point x="63" y="679"/>
      <point x="62" y="626"/>
      <point x="62" y="616" type="curve" smooth="yes"/>
      <point x="62" y="599"/>
      <point x="64" y="554"/>
      <point x="82" y="537" type="curve"/>
      <point x="82" y="528"/>
      <point x="305" y="304"/>
      <point x="308" y="301" type="curve" smooth="yes"/>
      <point x="313" y="296"/>
      <point x="372" y="235"/>
    </contour>
  </outline>
</glyph>
<glyph name="fraction" format="1">
  <advance width="522"/>
  <unicode hex="2044"/>
  <outline>
    <contour>
      <point x="79" y="-205" type="curve" smooth="yes"/>
      <point x="138" y="-205" type="line" smooth="yes"/>
      <point x="144" y="-205"/>
      <point x="152" y="-192"/>
      <point x="155" y="-172" type="curve" smooth="yes"/>
      <point x="455" y="1614" type="line" smooth="yes"/>
      <point x="456" y="1618"/>
      <point x="456" y="1621"/>
      <point x="456" y="1625" type="curve" smooth="yes"/>
      <point x="456" y="1637"/>
      <point x="453" y="1647"/>
      <point x="448" y="1647" type="curve" smooth="yes"/>
      <point x="391" y="1647" type="line" smooth="yes"/>
      <point x="384" y="1647"/>
      <point x="376" y="1634"/>
      <point x="373" y="1614" type="curve" smooth="yes"/>
      <point x="72" y="-172" type="line" smooth="yes"/>
      <point x="71" y="-175"/>
      <point x="71" y="-179"/>
      <point x="71" y="-182" type="curve" smooth="yes"/>
      <point x="71" y="-194"/>
      <point x="75" y="-205"/>
    </contour>
  </outline>
</glyph>
<glyph name="lessequal" format="1">
  <advance width="672"/>
  <unicode hex="2264"/>
  <outline>
    <contour>
      <point x="462" y="225" type="curve" smooth="yes"/>
      <point x="473" y="225"/>
      <point x="479" y="239"/>
      <point x="479" y="264" type="curve" smooth="yes"/>
      <point x="479" y="303" type="line" smooth="yes"/>
      <point x="479" y="347"/>
      <point x="467" y="357"/>
      <point x="447" y="382" type="curve"/>
      <point x="214" y="608" type="line" smooth="yes"/>
      <point x="210" y="612"/>
      <point x="208" y="617"/>
      <point x="208" y="622" type="curve" smooth="yes"/>
      <point x="208" y="627"/>
      <point x="210" y="633"/>
      <point x="213" y="637" type="curve" smooth="yes"/>
      <point x="448" y="895" type="line"/>
      <point x="467" y="921"/>
      <point x="479" y="938"/>
      <point x="479" y="982" type="curve" smooth="yes"/>
      <point x="479" y="1010" type="line" smooth="yes"/>
      <point x="479" y="1037"/>
      <point x="473" y="1052"/>
      <point x="462" y="1052" type="curve" smooth="yes"/>
      <point x="456" y="1052"/>
      <point x="450" y="1049"/>
      <point x="444" y="1041" type="curve" smooth="yes"/>
      <point x="165" y="723" type="line"/>
      <point x="138" y="686"/>
      <point x="129" y="676"/>
      <point x="129" y="634" type="curve" smooth="yes"/>
      <point x="129" y="616" type="line" smooth="yes"/>
      <point x="129" y="574"/>
      <point x="137" y="560"/>
      <point x="164" y="524" type="curve"/>
      <point x="445" y="241" type="line" smooth="yes"/>
      <point x="452" y="233"/>
      <point x="458" y="225"/>
    </contour>
    <contour>
      <point x="152" y="77" type="curve" smooth="yes"/>
      <point x="514" y="77" type="line" smooth="yes"/>
      <point x="531" y="77"/>
      <point x="541" y="81"/>
      <point x="541" y="109" type="curve" smooth="yes"/>
      <point x="541" y="124" type="line" smooth="yes"/>
      <point x="541" y="150"/>
      <point x="531" y="154"/>
      <point x="514" y="154" type="curve" smooth="yes"/>
      <point x="152" y="154" type="line" smooth="yes"/>
      <point x="136" y="154"/>
      <point x="125" y="150"/>
      <point x="125" y="122" type="curve" smooth="yes"/>
      <point x="125" y="107" type="line" smooth="yes"/>
      <point x="125" y="81"/>
      <point x="136" y="77"/>
    </contour>
  </outline>
</glyph>
<glyph name="uniFB01" format="1">
  <advance width="744"/>
  <unicode hex="FB01"/>
  <outline>
    <contour>
      <point x="564" y="0" type="curve" smooth="yes"/>
      <point x="624" y="0" type="line" smooth="yes"/>
      <point x="639" y="0"/>
      <point x="647" y="10"/>
      <point x="647" y="53" type="curve" smooth="yes"/>
      <point x="647" y="953" type="line" smooth="yes"/>
      <point x="647" y="996"/>
      <point x="639" y="1006"/>
      <point x="624" y="1006" type="curve" smooth="yes"/>
      <point x="238" y="1006" type="line" smooth="yes"/>
      <point x="237" y="1006"/>
      <point x="235" y="1009"/>
      <point x="235" y="1012" type="curve" smooth="yes"/>
      <point x="235" y="1093" type="line" smooth="yes"/>
      <point x="235" y="1297"/>
      <point x="251" y="1344"/>
      <point x="341" y="1344" type="curve" smooth="yes"/>
      <point x="394" y="1344" type="line" smooth="yes"/>
      <point x="407" y="1344"/>
      <point x="407" y="1347"/>
      <point x="407" y="1380" type="curve" smooth="yes"/>
      <point x="407" y="1409" type="line" smooth="yes"/>
      <point x="407" y="1437"/>
      <point x="396" y="1436"/>
      <point x="387" y="1437" type="curve" smooth="yes"/>
      <point x="383" y="1438"/>
      <point x="335" y="1439"/>
      <point x="326" y="1439" type="curve" smooth="yes"/>
      <point x="175" y="1439"/>
      <point x="129" y="1368"/>
      <point x="129" y="1036" type="curve" smooth="yes"/>
      <point x="129" y="1014"/>
      <point x="129" y="1006"/>
      <point x="121" y="1006" type="curve" smooth="yes"/>
      <point x="71" y="1006" type="line" smooth="yes"/>
      <point x="56" y="1006"/>
      <point x="47" y="1001"/>
      <point x="47" y="977" type="curve" smooth="yes"/>
      <point x="47" y="940" type="line" smooth="yes"/>
      <point x="47" y="915"/>
      <point x="56" y="912"/>
      <point x="71" y="912" type="curve" smooth="yes"/>
      <point x="121" y="912" type="line" smooth="yes"/>
      <point x="129" y="912"/>
      <point x="129" y="907"/>
      <point x="129" y="887" type="curve" smooth="yes"/>
      <point x="129" y="72" type="line" smooth="yes"/>
      <point x="129" y="29"/>
      <point x="141" y="0"/>
      <point x="155" y="0" type="curve" smooth="yes"/>
      <point x="210" y="0" type="line" smooth="yes"/>
      <point x="224" y="0"/>
      <point x="235" y="29"/>
      <point x="235" y="72" type="curve" smooth="yes"/>
      <point x="235" y="887" type="line" smooth="yes"/>
      <point x="235" y="907"/>
      <point x="237" y="912"/>
      <point x="244" y="912" type="curve" smooth="yes"/>
      <point x="541" y="912" type="line"/>
      <point x="541" y="53" type="line" smooth="yes"/>
      <point x="541" y="10"/>
      <point x="549" y="0"/>
    </contour>
    <contour>
      <point x="556" y="1174" type="curve" smooth="yes"/>
      <point x="632" y="1174" type="line" smooth="yes"/>
      <point x="647" y="1174"/>
      <point x="655" y="1180"/>
      <point x="655" y="1223" type="curve" smooth="yes"/>
      <point x="655" y="1295" type="line" smooth="yes"/>
      <point x="655" y="1338"/>
      <point x="647" y="1344"/>
      <point x="632" y="1344" type="curve" smooth="yes"/>
      <point x="556" y="1344" type="line" smooth="yes"/>
      <point x="541" y="1344"/>
      <point x="533" y="1338"/>
      <point x="533" y="1295" type="curve" smooth="yes"/>
      <point x="533" y="1223" type="line" smooth="yes"/>
      <point x="533" y="1180"/>
      <point x="541" y="1174"/>
    </contour>
  </outline>
</glyph>
